<svg width="512" height="511" viewBox="0 0 512 511" fill="none" xmlns="http://www.w3.org/2000/svg">
<path d="M370.448 311.3C370.782 311.1 371.088 310.84 371.368 310.52C371.648 310.2 371.942 309.887 372.248 309.58C372.062 309.7 371.895 309.833 371.748 309.98L371.328 310.4C371.182 310.547 371.022 310.693 370.848 310.84C370.688 310.973 370.495 311.093 370.268 311.2C370.202 311.133 370.148 311.08 370.108 311.04C370.082 311 370.068 310.947 370.068 310.88C370.068 310.813 370.075 310.773 370.088 310.76L370.728 310.12C370.728 310.173 370.762 310.22 370.828 310.26C370.895 310.287 370.948 310.3 370.988 310.3C371.055 310.1 371.155 309.94 371.288 309.82C371.422 309.7 371.562 309.593 371.708 309.5C371.855 309.393 371.995 309.28 372.128 309.16C372.262 309.04 372.362 308.88 372.428 308.68C372.415 308.667 372.408 308.653 372.408 308.64C372.382 308.613 372.362 308.6 372.348 308.6L370.848 310C370.942 309.893 371.095 309.713 371.308 309.46C371.522 309.207 371.742 308.947 371.968 308.68C372.195 308.413 372.402 308.18 372.588 307.98C372.788 307.78 372.915 307.68 372.968 307.68L372.988 307.7C373.095 307.74 373.242 307.78 373.428 307.82C373.628 307.847 373.775 307.86 373.868 307.86C373.962 307.86 374.068 307.84 374.188 307.8C374.188 307.88 374.228 307.973 374.308 308.08C374.388 308.187 374.475 308.293 374.568 308.4C374.662 308.507 374.748 308.613 374.828 308.72C374.908 308.813 374.948 308.887 374.948 308.94C374.948 309.033 374.915 309.08 374.848 309.08H374.788C374.788 309.2 374.795 309.413 374.808 309.72C374.835 310.013 374.848 310.353 374.848 310.74C374.848 310.953 374.782 311.14 374.648 311.3C374.515 311.46 374.362 311.6 374.188 311.72C374.015 311.84 373.835 311.94 373.648 312.02C373.475 312.1 373.342 312.16 373.248 312.2C373.168 312.2 373.135 312.24 373.148 312.32C373.162 312.413 373.135 312.46 373.068 312.46H372.968C372.928 312.46 372.868 312.44 372.788 312.4C372.708 312.373 372.622 312.333 372.528 312.28C372.542 312.24 372.608 312.14 372.728 311.98C372.862 311.807 373.002 311.627 373.148 311.44C373.295 311.24 373.435 311.06 373.568 310.9C373.702 310.727 373.788 310.62 373.828 310.58C373.762 310.62 373.655 310.72 373.508 310.88C373.362 311.027 373.208 311.193 373.048 311.38C372.902 311.553 372.755 311.72 372.608 311.88C372.475 312.027 372.388 312.12 372.348 312.16C372.175 312.067 372.055 312.02 371.988 312.02L371.888 312.1C371.742 312.1 371.582 312.067 371.408 312C371.248 311.947 371.095 311.88 370.948 311.8C370.815 311.72 370.695 311.64 370.588 311.56C370.495 311.48 370.448 311.42 370.448 311.38V311.3ZM378.603 308.78C378.817 308.847 379.07 308.967 379.363 309.14C379.67 309.313 380.01 309.493 380.383 309.68C380.757 309.867 381.163 310.033 381.603 310.18C382.057 310.327 382.537 310.4 383.043 310.4H383.263C383.343 310.4 383.437 310.387 383.543 310.36L383.763 310.52C384.283 310.36 384.71 310.06 385.043 309.62C385.377 309.167 385.543 308.56 385.543 307.8C385.543 307.253 385.41 306.88 385.143 306.68C384.89 306.467 384.417 306.36 383.723 306.36C383.297 306.36 382.85 306.393 382.383 306.46C381.93 306.513 381.45 306.54 380.943 306.54C380.717 306.54 380.483 306.533 380.243 306.52C380.003 306.493 379.757 306.447 379.503 306.38V306.5C380.037 306.633 380.563 306.7 381.083 306.7C381.59 306.7 382.07 306.673 382.523 306.62C382.99 306.553 383.437 306.52 383.863 306.52C384.223 306.52 384.503 306.56 384.703 306.64C384.917 306.707 385.077 306.8 385.183 306.92C385.29 307.04 385.357 307.187 385.383 307.36C385.423 307.52 385.443 307.7 385.443 307.9C385.443 308.527 385.277 309.06 384.943 309.5C384.623 309.913 384.243 310.173 383.803 310.28C384.297 310.107 384.683 309.807 384.963 309.38C385.257 308.927 385.403 308.42 385.403 307.86C385.403 307.46 385.297 307.153 385.083 306.94C384.883 306.727 384.53 306.62 384.023 306.62C383.61 306.62 383.143 306.647 382.623 306.7C382.103 306.753 381.55 306.78 380.963 306.78C380.603 306.78 380.183 306.733 379.703 306.64C379.237 306.547 378.79 306.373 378.363 306.12C377.937 305.867 377.577 305.52 377.283 305.08C376.99 304.627 376.843 304.04 376.843 303.32C376.843 302.747 376.957 302.22 377.183 301.74C377.423 301.247 377.737 300.82 378.123 300.46C378.51 300.087 378.95 299.793 379.443 299.58C379.95 299.367 380.47 299.253 381.003 299.24C381.51 299.24 381.99 299.313 382.443 299.46C382.91 299.593 383.35 299.773 383.763 300C384.177 300.213 384.57 300.453 384.943 300.72C385.317 300.987 385.663 301.253 385.983 301.52L385.583 301.92C385.49 301.92 385.35 301.867 385.163 301.76C384.977 301.64 384.69 301.44 384.303 301.16L384.183 301.34C384.663 301.727 385.01 302.087 385.223 302.42C385.45 302.753 385.563 303.013 385.563 303.2C385.537 303.307 385.47 303.36 385.363 303.36C385.257 303.36 385.043 303.273 384.723 303.1C384.403 302.927 384.037 302.733 383.623 302.52C383.223 302.307 382.797 302.113 382.343 301.94C381.89 301.767 381.477 301.68 381.103 301.68C380.89 301.68 380.677 301.72 380.463 301.8C380.25 301.88 380.057 301.993 379.883 302.14C379.71 302.273 379.563 302.44 379.443 302.64C379.337 302.84 379.283 303.06 379.283 303.3C379.283 303.687 379.463 303.947 379.823 304.08C380.183 304.213 380.657 304.28 381.243 304.28C381.363 304.28 381.49 304.28 381.623 304.28C381.77 304.267 381.903 304.247 382.023 304.22C382.33 304.22 382.53 304.213 382.623 304.2C382.73 304.173 382.83 304.16 382.923 304.16C383.497 304.16 384.07 304.2 384.643 304.28C385.217 304.36 385.73 304.533 386.183 304.8C386.637 305.067 387.003 305.447 387.283 305.94C387.563 306.433 387.703 307.093 387.703 307.92C387.703 308.493 387.603 309.067 387.403 309.64C387.217 310.2 386.93 310.707 386.543 311.16C386.157 311.6 385.677 311.953 385.103 312.22C384.53 312.5 383.857 312.64 383.083 312.64C382.617 312.64 382.063 312.547 381.423 312.36C380.797 312.187 380.197 311.98 379.623 311.74C379.063 311.487 378.583 311.227 378.183 310.96C377.797 310.693 377.603 310.467 377.603 310.28C377.603 310.227 377.637 310.187 377.703 310.16C378.517 310.76 379.343 311.253 380.183 311.64C381.01 312 381.857 312.2 382.723 312.24C382.297 312.213 381.87 312.14 381.443 312.02C381.003 311.887 380.563 311.727 380.123 311.54C379.697 311.34 379.283 311.12 378.883 310.88C378.497 310.627 378.123 310.373 377.763 310.12L378.063 309.86C378.023 309.847 377.95 309.8 377.843 309.72C377.737 309.64 377.63 309.54 377.523 309.42C377.43 309.3 377.343 309.173 377.263 309.04C377.183 308.907 377.143 308.78 377.143 308.66C377.143 308.527 377.17 308.44 377.223 308.4C377.277 308.36 377.337 308.34 377.403 308.34C377.47 308.34 377.61 308.387 377.823 308.48C378.037 308.573 378.297 308.673 378.603 308.78ZM383.023 310.82C382.557 310.82 382.037 310.727 381.463 310.54C380.903 310.34 380.37 310.087 379.863 309.78C380.277 310.06 380.737 310.313 381.243 310.54C381.75 310.753 382.337 310.86 383.003 310.86C383.897 310.86 384.603 310.587 385.123 310.04C385.657 309.493 385.923 308.76 385.923 307.84V307.64C385.857 307.213 385.71 306.867 385.483 306.6C385.27 306.32 384.937 306.167 384.483 306.14C384.763 306.193 384.99 306.28 385.163 306.4C385.35 306.52 385.49 306.667 385.583 306.84C385.69 307 385.763 307.18 385.803 307.38C385.843 307.58 385.863 307.787 385.863 308C385.81 308.88 385.53 309.573 385.023 310.08C384.517 310.573 383.85 310.82 383.023 310.82ZM385.563 311.6C385.897 311.387 386.163 311.127 386.363 310.82C386.563 310.513 386.737 310.193 386.883 309.86C386.603 310.42 386.217 310.913 385.723 311.34C385.243 311.767 384.67 312.033 384.003 312.14C384.257 312.1 384.517 312.047 384.783 311.98C385.063 311.9 385.323 311.773 385.563 311.6ZM387.463 307.84C387.463 307.693 387.437 307.553 387.383 307.42C387.343 307.313 387.31 307.2 387.283 307.08L387.303 307.34C387.317 307.447 387.323 307.593 387.323 307.78C387.323 308.14 387.283 308.487 387.203 308.82C387.123 309.153 387.023 309.48 386.903 309.8C387.023 309.507 387.137 309.2 387.243 308.88C387.363 308.547 387.437 308.2 387.463 307.84ZM387.283 307.02C387.283 307.033 387.283 307.053 387.283 307.08C387.283 307.053 387.283 307.033 387.283 307.02ZM383.783 310.3C383.77 310.3 383.757 310.3 383.743 310.3C383.757 310.3 383.77 310.3 383.783 310.3ZM397.235 302C397.115 302 396.948 302.02 396.735 302.06C396.535 302.1 396.328 302.147 396.115 302.2C395.915 302.253 395.728 302.307 395.555 302.36C395.395 302.413 395.295 302.453 395.255 302.48C395.602 302.427 395.922 302.367 396.215 302.3C396.508 302.22 396.828 302.18 397.175 302.18C397.108 302.3 397.022 302.393 396.915 302.46C396.808 302.527 396.688 302.58 396.555 302.62C396.435 302.647 396.302 302.673 396.155 302.7C396.008 302.713 395.855 302.74 395.695 302.78L395.555 302.6C395.302 302.693 395.108 302.753 394.975 302.78C394.842 302.793 394.702 302.8 394.555 302.8C394.395 302.8 394.228 302.8 394.055 302.8C393.895 302.787 393.715 302.78 393.515 302.78C393.515 302.847 393.508 302.9 393.495 302.94C393.802 302.94 394.062 302.94 394.275 302.94C394.488 302.927 394.748 302.9 395.055 302.86C394.762 302.913 394.502 302.953 394.275 302.98C394.062 303.007 393.802 303.02 393.495 303.02C393.442 303.327 393.395 303.627 393.355 303.92C393.315 304.213 393.295 304.5 393.295 304.78C393.295 304.94 393.302 305.127 393.315 305.34C393.328 305.553 393.342 305.773 393.355 306C393.382 306.213 393.402 306.42 393.415 306.62C393.428 306.807 393.435 306.947 393.435 307.04V308.24C393.502 308.507 393.695 308.707 394.015 308.84C394.335 308.973 394.795 309.04 395.395 309.04H396.035C396.262 309.04 396.415 309.067 396.495 309.12C396.588 309.16 396.635 309.22 396.635 309.3C396.635 309.367 396.582 309.407 396.475 309.42C396.368 309.42 396.262 309.42 396.155 309.42C395.768 309.42 395.362 309.393 394.935 309.34C394.535 309.287 394.142 309.227 393.755 309.16C394.142 309.253 394.548 309.34 394.975 309.42C395.415 309.487 395.842 309.52 396.255 309.52H396.435C396.488 309.52 396.548 309.513 396.615 309.5C396.615 309.567 396.615 309.627 396.615 309.68C396.628 309.733 396.648 309.793 396.675 309.86L396.835 309.82C396.875 309.807 396.922 309.8 396.975 309.8C397.028 309.787 397.068 309.767 397.095 309.74C397.522 309.78 397.735 309.927 397.735 310.18C397.735 310.327 397.695 310.447 397.615 310.54C397.535 310.633 397.435 310.707 397.315 310.76C397.195 310.813 397.062 310.853 396.915 310.88C396.768 310.893 396.628 310.9 396.495 310.9C396.028 310.9 395.568 310.873 395.115 310.82C394.675 310.753 394.242 310.687 393.815 310.62C394.188 310.753 394.662 310.86 395.235 310.94C395.808 311.02 396.388 311.06 396.975 311.06C396.828 311.153 396.655 311.227 396.455 311.28C396.255 311.333 396.048 311.36 395.835 311.36L394.395 311.18C394.208 311.153 394.062 311.127 393.955 311.1C393.862 311.073 393.768 311.047 393.675 311.02C393.582 310.98 393.475 310.94 393.355 310.9C393.248 310.86 393.095 310.813 392.895 310.76V310.54C392.548 310.447 392.268 310.287 392.055 310.06C391.842 309.833 391.675 309.587 391.555 309.32C391.435 309.053 391.355 308.787 391.315 308.52C391.275 308.24 391.255 307.993 391.255 307.78C391.255 307.553 391.255 307.347 391.255 307.16C391.268 306.96 391.275 306.76 391.275 306.56C391.275 306.413 391.268 306.227 391.255 306C391.255 305.773 391.248 305.533 391.235 305.28C391.222 305.027 391.208 304.767 391.195 304.5C391.195 304.233 391.195 303.98 391.195 303.74C391.195 303.593 391.195 303.453 391.195 303.32C391.208 303.187 391.222 303.067 391.235 302.96H391.035C391.022 303.053 391.015 303.16 391.015 303.28V303.64C391.015 304.027 391.022 304.413 391.035 304.8C391.048 305.173 391.055 305.52 391.055 305.84C391.068 306.16 391.082 306.44 391.095 306.68C391.108 306.907 391.115 307.073 391.115 307.18V307.98V308.14C391.075 307.78 391.035 307.267 390.995 306.6C390.955 305.827 390.935 304.973 390.935 304.04V303.68C390.935 303.533 390.935 303.393 390.935 303.26C390.948 303.127 390.968 303.027 390.995 302.96L390.315 302.92C390.168 302.827 390.022 302.753 389.875 302.7C389.728 302.647 389.595 302.62 389.475 302.62V302.22C389.475 302.14 389.482 302.073 389.495 302.02C389.522 301.953 389.588 301.92 389.695 301.92C389.722 301.92 389.788 301.933 389.895 301.96V301.72C389.748 301.64 389.628 301.533 389.535 301.4C389.442 301.253 389.395 301.107 389.395 300.96C389.395 300.613 389.642 300.44 390.135 300.44C390.322 300.44 390.515 300.453 390.715 300.48C390.915 300.507 391.122 300.527 391.335 300.54C391.388 300.247 391.435 299.987 391.475 299.76C391.515 299.52 391.555 299.293 391.595 299.08C391.635 298.853 391.682 298.633 391.735 298.42C391.788 298.193 391.855 297.96 391.935 297.72C392.055 297.453 392.148 297.167 392.215 296.86C392.282 296.54 392.328 296.227 392.355 295.92L392.775 295.94C392.842 295.94 392.895 295.96 392.935 296C392.988 296.04 393.015 296.133 393.015 296.28C393.015 296.4 392.995 296.56 392.955 296.76L393.195 296.82C393.302 296.46 393.428 296.167 393.575 295.94C393.735 295.713 393.888 295.6 394.035 295.6C394.262 295.6 394.402 295.887 394.455 296.46V296.82C394.455 297.167 394.428 297.493 394.375 297.8C394.335 298.093 394.282 298.387 394.215 298.68C394.148 298.973 394.082 299.273 394.015 299.58C393.948 299.887 393.888 300.22 393.835 300.58C394.128 300.62 394.415 300.64 394.695 300.64C394.828 300.64 394.962 300.64 395.095 300.64C395.228 300.627 395.362 300.62 395.495 300.62C395.628 300.62 395.768 300.567 395.915 300.46C396.062 300.353 396.195 300.3 396.315 300.3C396.422 300.3 396.502 300.333 396.555 300.4C396.608 300.467 396.635 300.54 396.635 300.62C396.395 300.687 396.155 300.76 395.915 300.84C395.688 300.907 395.468 300.973 395.255 301.04C395.468 301.013 395.695 300.967 395.935 300.9C396.175 300.82 396.428 300.747 396.695 300.68C396.695 300.747 396.695 300.807 396.695 300.86C396.708 300.913 396.728 300.973 396.755 301.04C396.782 301.04 396.815 301.033 396.855 301.02C396.935 300.993 396.982 300.98 396.995 300.98C397.128 301.047 397.215 301.133 397.255 301.24C397.295 301.333 397.315 301.44 397.315 301.56C397.315 301.653 397.302 301.74 397.275 301.82C397.248 301.887 397.235 301.947 397.235 302ZM391.935 309.38C391.748 309.02 391.648 308.667 391.635 308.32C391.622 307.973 391.602 307.647 391.575 307.34L391.395 304.3L391.335 304.66C391.335 305.553 391.362 306.367 391.415 307.1C391.482 307.82 391.575 308.38 391.695 308.78C391.695 308.9 391.688 308.98 391.675 309.02C391.675 309.06 391.675 309.093 391.675 309.12C391.675 309.147 391.688 309.18 391.715 309.22C391.755 309.26 391.828 309.313 391.935 309.38ZM393.075 308.3C393.048 308.193 393.035 308.08 393.035 307.96V306.98C393.022 307.113 393.008 307.247 392.995 307.38C392.982 307.5 392.975 307.627 392.975 307.76C392.975 308.107 392.995 308.373 393.035 308.56C393.075 308.72 393.155 308.853 393.275 308.96C393.208 308.88 393.162 308.793 393.135 308.7C393.122 308.593 393.102 308.46 393.075 308.3ZM391.135 308.28L391.115 308.14L391.135 308.28ZM393.315 308.98C393.302 308.967 393.288 308.96 393.275 308.96C393.288 308.96 393.302 308.967 393.315 308.98ZM410.066 299.82L410.006 300.18C409.94 300.833 409.9 301.533 409.886 302.28C409.873 303.013 409.82 303.753 409.726 304.5C409.833 303.767 409.92 303.047 409.986 302.34C410.053 301.607 410.12 300.887 410.186 300.18C410.253 300.393 410.306 300.62 410.346 300.86C410.4 301.1 410.426 301.353 410.426 301.62C410.36 302.287 410.3 302.927 410.246 303.54C410.193 304.153 410.12 304.793 410.026 305.46L409.766 305.52C409.7 306.133 409.56 306.8 409.346 307.52C409.133 308.24 408.82 308.907 408.406 309.52C408.006 310.133 407.486 310.647 406.846 311.06C406.206 311.46 405.44 311.66 404.546 311.66C404.253 311.66 403.94 311.64 403.606 311.6C403.286 311.547 402.973 311.473 402.666 311.38C402.36 311.273 402.066 311.14 401.786 310.98C401.506 310.82 401.266 310.62 401.066 310.38L401.086 310.42V310.44L401.066 310.46L401.006 310.44C401.086 310.56 401.173 310.667 401.266 310.76C401.026 310.547 400.806 310.3 400.606 310.02C400.273 309.567 400.006 309.027 399.806 308.4C399.686 308.027 399.593 307.647 399.526 307.26C399.46 306.873 399.413 306.467 399.386 306.04C399.36 305.6 399.34 305.127 399.326 304.62C399.326 304.113 399.326 303.553 399.326 302.94C399.446 302.46 399.54 301.98 399.606 301.5C399.673 301.02 399.72 300.54 399.746 300.06C399.786 300.06 399.833 300.053 399.886 300.04C399.94 300.027 399.993 300.02 400.046 300.02C400.14 300.02 400.22 300.073 400.286 300.18C400.366 300.287 400.406 300.513 400.406 300.86V301.04C400.406 301.093 400.4 301.153 400.386 301.22H400.626C400.733 300.66 400.86 300.233 401.006 299.94C401.153 299.647 401.3 299.5 401.446 299.5C401.553 299.5 401.646 299.653 401.726 299.96C401.82 300.253 401.866 300.72 401.866 301.36C401.866 301.827 401.853 302.3 401.826 302.78C401.8 303.26 401.786 303.753 401.786 304.26C401.786 305.047 401.82 305.76 401.886 306.4C401.966 307.04 402.113 307.587 402.326 308.04C402.54 308.493 402.84 308.847 403.226 309.1C403.626 309.34 404.14 309.46 404.766 309.46C405.286 309.46 405.72 309.3 406.066 308.98C406.413 308.66 406.706 308.233 406.946 307.7C407.186 307.167 407.386 306.553 407.546 305.86C407.72 305.153 407.88 304.42 408.026 303.66C408.053 303.447 408.073 303.233 408.086 303.02C408.1 302.807 408.106 302.587 408.106 302.36V301.74C408.106 301.353 408.126 301.027 408.166 300.76C408.206 300.493 408.32 300.34 408.506 300.3C408.506 300.98 408.486 301.653 408.446 302.32C408.42 302.96 408.366 303.6 408.286 304.24C408.38 303.613 408.453 302.987 408.506 302.36C408.56 301.707 408.6 301.04 408.626 300.36C408.706 300.413 408.773 300.44 408.826 300.44C408.88 300.44 408.933 300.413 408.986 300.36V299.64C409.053 299.4 409.12 299.233 409.186 299.14C409.253 299.033 409.326 298.98 409.406 298.98C409.486 298.98 409.566 299.02 409.646 299.1C409.726 299.18 409.806 299.28 409.886 299.4L410.066 299.82ZM401.806 311.16C402.126 311.333 402.453 311.473 402.786 311.58C403.133 311.673 403.453 311.74 403.746 311.78C404.053 311.82 404.3 311.84 404.486 311.84C405.42 311.84 406.213 311.633 406.866 311.22C407.52 310.807 408.053 310.293 408.466 309.68C408.893 309.053 409.22 308.387 409.446 307.68C409.66 307.013 409.82 306.4 409.926 305.84C409.833 306.4 409.686 307.02 409.486 307.7C409.26 308.42 408.933 309.093 408.506 309.72C408.093 310.347 407.566 310.873 406.926 311.3C406.286 311.727 405.513 311.94 404.606 311.94C404.1 311.94 403.6 311.873 403.106 311.74C402.613 311.607 402.153 311.4 401.726 311.12C401.753 311.133 401.78 311.147 401.806 311.16ZM409.466 306.24C409.506 306.013 409.54 305.793 409.566 305.58C409.593 305.393 409.62 305.207 409.646 305.02C409.566 305.607 409.433 306.227 409.246 306.88C409.06 307.56 408.8 308.207 408.466 308.82C408.133 309.42 407.713 309.953 407.206 310.42C406.726 310.86 406.166 311.16 405.526 311.32C406.086 311.2 406.586 310.967 407.026 310.62C407.48 310.26 407.866 309.84 408.186 309.36C408.506 308.88 408.766 308.367 408.966 307.82C409.18 307.273 409.346 306.747 409.466 306.24ZM407.486 307.64C407.34 307.933 407.173 308.213 406.986 308.48C406.813 308.747 406.613 308.987 406.386 309.2C406.626 309 406.833 308.767 407.006 308.5C407.193 308.233 407.353 307.947 407.486 307.64ZM401.726 311.12C401.566 311.013 401.413 310.893 401.266 310.76C401.413 310.893 401.566 311.013 401.726 311.12ZM409.946 305.7L409.926 305.84L409.946 305.7ZM409.666 304.92C409.653 304.96 409.646 304.993 409.646 305.02C409.646 304.993 409.653 304.96 409.666 304.92ZM422.992 297.4C423.018 297.787 423.038 298.167 423.052 298.54C423.065 298.9 423.072 299.273 423.072 299.66C423.072 300.46 423.045 301.267 422.992 302.08C422.952 302.88 422.898 303.693 422.832 304.52C422.765 305.347 422.698 306.193 422.632 307.06C422.565 307.927 422.505 308.827 422.452 309.76C422.452 309.907 422.445 310.06 422.432 310.22C422.432 310.367 422.418 310.533 422.392 310.72V310.96C422.392 311 422.378 311.053 422.352 311.12C422.325 311.187 422.298 311.233 422.272 311.26C422.098 311.46 421.938 311.613 421.792 311.72C421.658 311.813 421.532 311.887 421.412 311.94C421.292 311.98 421.178 312 421.072 312C420.965 312.013 420.858 312.027 420.752 312.04H420.872C420.912 312.04 420.985 312.033 421.092 312.02C421.212 312.007 421.338 311.987 421.472 311.96C421.618 311.92 421.752 311.873 421.872 311.82C422.005 311.753 422.098 311.667 422.152 311.56L422.332 311.2C422.412 311.053 422.458 310.9 422.472 310.74C422.498 310.567 422.512 310.4 422.512 310.24C422.525 310.067 422.532 309.9 422.532 309.74C422.532 309.58 422.545 309.427 422.572 309.28C422.612 308.44 422.665 307.6 422.732 306.76C422.812 305.92 422.885 305.073 422.952 304.22C423.018 303.367 423.078 302.507 423.132 301.64C423.185 300.76 423.212 299.867 423.212 298.96C423.212 298.68 423.205 298.413 423.192 298.16C423.192 297.893 423.185 297.64 423.172 297.4C423.212 297.453 423.252 297.54 423.292 297.66C423.345 297.767 423.385 297.94 423.412 298.18C423.478 298.327 423.518 298.487 423.532 298.66C423.545 298.833 423.565 299.013 423.592 299.2C423.592 300.107 423.558 300.987 423.492 301.84C423.425 302.68 423.358 303.52 423.292 304.36L423.112 304.42L422.932 307.84C422.932 308.8 422.885 309.593 422.792 310.22C422.712 310.833 422.638 311.24 422.572 311.44V311.5C422.372 311.7 422.198 311.853 422.052 311.96C421.918 312.053 421.792 312.127 421.672 312.18C421.552 312.233 421.438 312.26 421.332 312.26C421.238 312.273 421.138 312.28 421.032 312.28H419.752C419.392 312.24 419.005 312.22 418.592 312.22C418.178 312.233 417.745 312.193 417.292 312.1C416.838 312.007 416.372 311.813 415.892 311.52C415.425 311.227 414.952 310.76 414.472 310.12C414.472 310.147 414.465 310.167 414.452 310.18C414.438 310.193 414.425 310.213 414.412 310.24C414.852 310.84 415.378 311.333 415.992 311.72C416.618 312.107 417.292 312.333 418.012 312.4H419.692C419.852 312.427 420.012 312.44 420.172 312.44C420.345 312.453 420.532 312.46 420.732 312.46C420.932 312.46 421.192 312.433 421.512 312.38C421.845 312.327 422.158 312.153 422.452 311.86C422.505 311.793 422.538 311.747 422.552 311.72C422.578 311.68 422.605 311.627 422.632 311.56L422.692 311.44C422.758 311.32 422.805 311.2 422.832 311.08C422.872 310.947 422.905 310.82 422.932 310.7C422.932 310.847 422.918 310.973 422.892 311.08C422.878 311.187 422.832 311.347 422.752 311.56L422.692 311.62L422.452 311.98C422.332 312.1 422.198 312.193 422.052 312.26C421.905 312.327 421.765 312.373 421.632 312.4C421.498 312.44 421.372 312.467 421.252 312.48C421.145 312.493 421.065 312.507 421.012 312.52H420.352C420.178 312.52 420.032 312.513 419.912 312.5C419.805 312.5 419.718 312.493 419.652 312.48C419.598 312.48 419.552 312.473 419.512 312.46H418.912C418.792 312.46 418.672 312.46 418.552 312.46C418.432 312.473 418.305 312.48 418.172 312.48C417.545 312.48 416.932 312.327 416.332 312.02C415.745 311.727 415.198 311.307 414.692 310.76C414.198 310.213 413.758 309.567 413.372 308.82C412.985 308.073 412.692 307.247 412.492 306.34C412.492 306.193 412.478 306.053 412.452 305.92C412.438 305.787 412.432 305.647 412.432 305.5C412.432 305.007 412.505 304.507 412.652 304C412.812 303.48 413.092 303.013 413.492 302.6C413.892 302.187 414.432 301.853 415.112 301.6C415.792 301.333 416.652 301.2 417.692 301.2C418.172 301.2 418.638 301.213 419.092 301.24C419.545 301.253 420.005 301.273 420.472 301.3C420.418 301.34 420.392 301.387 420.392 301.44C420.392 301.507 420.405 301.567 420.432 301.62C420.458 301.66 420.472 301.707 420.472 301.76C420.472 301.827 420.418 301.887 420.312 301.94C420.218 301.98 420.012 302 419.692 302C419.585 302 419.458 302 419.312 302C419.178 301.987 419.025 301.973 418.852 301.96V302.14C419.492 302.233 420.005 302.36 420.392 302.52C420.792 302.667 421.038 302.8 421.132 302.92L421.172 302.96L421.252 302.08C421.292 301.72 421.312 301.313 421.312 300.86C421.312 300.393 421.298 299.933 421.272 299.48C421.245 299.027 421.232 298.673 421.232 298.42C421.232 298.1 421.252 297.887 421.292 297.78C421.332 297.673 421.385 297.62 421.452 297.62C421.505 297.62 421.545 297.733 421.572 297.96C421.612 298.187 421.638 298.447 421.652 298.74C421.678 299.02 421.692 299.3 421.692 299.58V300.16C421.692 300.547 421.685 300.94 421.672 301.34C421.658 301.727 421.638 302.113 421.612 302.5C421.652 301.993 421.685 301.5 421.712 301.02C421.738 300.527 421.752 300.027 421.752 299.52C421.752 299.213 421.745 298.913 421.732 298.62C421.718 298.313 421.698 298.007 421.672 297.7C421.752 297.78 421.812 297.82 421.852 297.82C421.905 297.82 421.945 297.78 421.972 297.7C421.958 297.593 421.945 297.48 421.932 297.36C421.918 297.253 421.912 297.147 421.912 297.04V296.74C421.978 296.58 422.065 296.46 422.172 296.38C422.278 296.287 422.372 296.24 422.452 296.24C422.678 296.24 422.878 296.487 423.052 296.98L422.992 297.4ZM419.752 303.4C419.312 303.427 418.812 303.453 418.252 303.48C417.705 303.507 417.185 303.58 416.692 303.7C416.198 303.807 415.772 303.973 415.412 304.2C415.065 304.427 414.872 304.74 414.832 305.14C414.832 305.58 414.925 306.073 415.112 306.62C415.298 307.167 415.545 307.687 415.852 308.18C416.158 308.66 416.505 309.073 416.892 309.42C417.292 309.767 417.705 309.96 418.132 310H419.272C419.338 310 419.385 310.007 419.412 310.02C419.452 310.02 419.505 310.033 419.572 310.06H420.052C420.252 310.1 420.452 310.12 420.652 310.12C420.652 309 420.698 307.853 420.792 306.68C420.898 305.493 421.012 304.333 421.132 303.2C420.958 303.333 420.498 303.4 419.752 303.4ZM421.192 307.54C421.192 307.687 421.178 307.84 421.152 308C421.138 308.147 421.132 308.313 421.132 308.5C421.278 307.753 421.365 306.967 421.392 306.14C421.418 305.313 421.452 304.52 421.492 303.76C421.425 304.4 421.372 305.033 421.332 305.66C421.305 306.273 421.258 306.9 421.192 307.54ZM422.932 309.7C422.932 309.553 422.938 309.407 422.952 309.26C422.965 309.1 422.985 308.933 423.012 308.76C422.998 309.16 422.992 309.54 422.992 309.9C422.992 310.247 422.972 310.493 422.932 310.64C422.932 310.573 422.932 310.513 422.932 310.46C422.945 310.393 422.952 310.327 422.952 310.26C422.952 310.153 422.945 310.053 422.932 309.96C422.932 309.867 422.932 309.78 422.932 309.7ZM423.232 306.46C423.205 306.527 423.185 306.607 423.172 306.7C423.158 306.78 423.138 306.867 423.112 306.96L423.192 305.74L423.232 306.46ZM423.052 308.02C423.052 308.14 423.045 308.26 423.032 308.38C423.032 308.5 423.025 308.613 423.012 308.72C423.012 308.453 423.018 308.187 423.032 307.92C423.045 307.64 423.065 307.387 423.092 307.16L423.052 308.02ZM421.072 309.26C421.085 309.207 421.092 309.153 421.092 309.1C421.092 309.047 421.105 308.987 421.132 308.92V308.7C421.118 308.727 421.112 308.753 421.112 308.78C421.112 308.793 421.105 308.807 421.092 308.82L421.072 308.86V309.26ZM421.012 310.22C421.025 310.1 421.038 309.98 421.052 309.86C421.065 309.727 421.072 309.593 421.072 309.46V309.4L420.992 310.18L421.012 310.22ZM426.116 310.96C426.169 310.587 426.216 310.153 426.256 309.66C426.309 309.153 426.356 308.647 426.396 308.14C426.436 307.633 426.476 307.14 426.516 306.66C426.556 306.167 426.596 305.74 426.636 305.38C426.569 305.74 426.509 306.153 426.456 306.62C426.402 307.087 426.349 307.567 426.296 308.06C426.242 308.553 426.189 309.047 426.136 309.54C426.082 310.02 426.036 310.453 425.996 310.84C425.796 310.707 425.696 310.527 425.696 310.3C425.696 310.033 425.702 309.813 425.716 309.64C425.729 309.453 425.749 309.24 425.776 309L425.996 308.8C425.982 308.733 425.976 308.673 425.976 308.62V308.42C425.976 308.113 426.009 307.767 426.076 307.38C426.142 306.98 426.216 306.58 426.296 306.18C426.389 305.767 426.469 305.373 426.536 305C426.602 304.613 426.636 304.28 426.636 304L426.396 303.94C426.369 304.26 426.329 304.627 426.276 305.04C426.222 305.44 426.162 305.86 426.096 306.3C426.042 306.727 425.989 307.153 425.936 307.58C425.909 307.807 425.882 308.02 425.856 308.22C425.882 307.847 425.916 307.447 425.956 307.02C426.022 306.407 426.089 305.8 426.156 305.2C426.236 304.587 426.309 303.987 426.376 303.4C426.442 302.813 426.509 302.273 426.576 301.78C426.576 301.58 426.622 301.367 426.716 301.14C426.822 300.9 426.896 300.653 426.936 300.4C427.016 300.427 427.082 300.44 427.136 300.44H427.276C427.409 300.44 427.496 300.473 427.536 300.54C427.576 300.593 427.596 300.673 427.596 300.78V300.88L427.776 300.94C427.882 300.74 428.009 300.58 428.156 300.46C428.302 300.34 428.449 300.28 428.596 300.28C428.916 300.28 429.076 300.62 429.076 301.3C429.076 301.66 429.036 302.047 428.956 302.46C428.889 302.86 428.856 303.253 428.856 303.64V303.9C428.856 304.327 428.809 304.793 428.716 305.3C428.622 305.793 428.516 306.3 428.396 306.82C428.289 307.327 428.189 307.82 428.096 308.3C428.002 308.78 427.956 309.22 427.956 309.62C427.956 309.713 427.962 309.813 427.976 309.92C427.989 310.027 427.996 310.127 427.996 310.22C427.996 310.42 427.956 310.547 427.876 310.6C427.809 310.64 427.722 310.66 427.616 310.66C427.616 310.487 427.609 310.273 427.596 310.02C427.582 309.767 427.576 309.54 427.576 309.34C427.549 309.487 427.536 309.687 427.536 309.94C427.536 310.193 427.522 310.433 427.496 310.66H427.196V310.9C427.076 311.113 426.916 311.22 426.716 311.22C426.622 311.22 426.516 311.193 426.396 311.14C426.276 311.087 426.182 311.027 426.116 310.96ZM430.236 295.6C430.009 295.733 429.802 295.907 429.616 296.12C429.429 296.333 429.236 296.54 429.036 296.74C429.156 296.66 429.262 296.573 429.356 296.48C429.449 296.387 429.542 296.293 429.636 296.2C429.742 296.107 429.849 296.013 429.956 295.92C430.076 295.827 430.209 295.74 430.356 295.66C430.396 295.713 430.429 295.76 430.456 295.8C430.496 295.84 430.516 295.88 430.516 295.92L430.056 296.38C430.056 296.353 430.029 296.327 429.976 296.3C429.936 296.273 429.902 296.26 429.876 296.26C429.836 296.393 429.769 296.5 429.676 296.58C429.582 296.66 429.489 296.733 429.396 296.8C429.302 296.867 429.209 296.94 429.116 297.02C429.022 297.1 428.956 297.207 428.916 297.34V297.38C428.916 297.393 428.936 297.4 428.976 297.4L429.976 296.46L429.596 296.84C429.409 297.027 429.209 297.22 428.996 297.42C428.796 297.607 428.602 297.773 428.416 297.92C428.242 298.067 428.136 298.14 428.096 298.14L428.076 298.12C427.982 298.093 427.882 298.08 427.776 298.08C427.682 298.08 427.582 298.073 427.476 298.06C427.476 297.953 427.456 297.84 427.416 297.72C427.389 297.6 427.376 297.507 427.376 297.44C427.376 297.373 427.409 297.34 427.476 297.34C427.476 297.3 427.449 297.24 427.396 297.16C427.356 297.067 427.309 296.967 427.256 296.86C427.202 296.74 427.149 296.62 427.096 296.5C427.056 296.367 427.036 296.233 427.036 296.1C427.036 295.967 427.089 295.84 427.196 295.72C427.316 295.587 427.449 295.473 427.596 295.38C427.756 295.287 427.909 295.207 428.056 295.14C428.202 295.073 428.309 295.027 428.376 295C428.429 295 428.449 294.973 428.436 294.92C428.422 294.853 428.442 294.82 428.496 294.82L428.856 294.94C428.829 295.007 428.742 295.12 428.596 295.28C428.462 295.427 428.362 295.533 428.296 295.6C428.389 295.533 428.496 295.433 428.616 295.3C428.749 295.167 428.849 295.067 428.916 295C428.982 295.027 429.042 295.053 429.096 295.08C429.149 295.107 429.189 295.12 429.216 295.12L429.276 295.06C429.369 295.06 429.469 295.08 429.576 295.12C429.696 295.16 429.802 295.207 429.896 295.26C429.989 295.313 430.069 295.373 430.136 295.44C430.202 295.507 430.236 295.56 430.236 295.6ZM425.816 308.7C425.829 308.553 425.842 308.407 425.856 308.26C425.842 308.42 425.829 308.567 425.816 308.7ZM436.359 299.96C436.372 300.027 436.446 300.06 436.579 300.06H436.619C436.699 300.06 436.752 300.067 436.779 300.08C437.472 300.293 438.159 300.607 438.839 301.02C439.532 301.42 440.152 301.907 440.699 302.48C441.259 303.04 441.706 303.68 442.039 304.4C442.386 305.12 442.559 305.893 442.559 306.72C442.559 307.44 442.419 308.133 442.139 308.8C441.859 309.467 441.472 310.047 440.979 310.54C441.486 310.1 441.886 309.553 442.179 308.9C442.486 308.233 442.639 307.52 442.639 306.76C442.639 305.907 442.459 305.113 442.099 304.38C441.739 303.633 441.279 302.967 440.719 302.38C440.159 301.793 439.532 301.293 438.839 300.88C438.159 300.453 437.492 300.127 436.839 299.9C437.346 299.9 437.859 300.013 438.379 300.24C438.912 300.467 439.419 300.767 439.899 301.14C440.379 301.5 440.819 301.92 441.219 302.4C441.632 302.867 441.979 303.347 442.259 303.84L442.119 304.04C442.386 304.44 442.586 304.873 442.719 305.34C442.866 305.807 442.939 306.287 442.939 306.78C442.939 307.727 442.732 308.56 442.319 309.28C441.919 309.987 441.406 310.58 440.779 311.06C440.166 311.527 439.486 311.88 438.739 312.12C438.006 312.36 437.312 312.48 436.659 312.48C436.286 312.48 435.906 312.44 435.519 312.36C435.146 312.28 434.766 312.147 434.379 311.96V312.08C434.752 312.293 435.132 312.44 435.519 312.52C435.919 312.6 436.312 312.64 436.699 312.64C437.659 312.64 438.599 312.427 439.519 312C440.452 311.587 441.239 311 441.879 310.24C441.266 311.027 440.499 311.64 439.579 312.08C438.672 312.52 437.726 312.74 436.739 312.74C435.726 312.74 434.906 312.54 434.279 312.14C433.652 311.753 433.159 311.273 432.799 310.7C432.452 310.127 432.219 309.52 432.099 308.88C431.979 308.24 431.919 307.667 431.919 307.16C431.919 306.48 432.006 305.813 432.179 305.16C432.366 304.507 432.646 303.907 433.019 303.36C433.392 302.813 433.872 302.347 434.459 301.96C435.046 301.56 435.752 301.28 436.579 301.12L435.999 300.98C435.719 300.913 435.519 300.833 435.399 300.74C435.279 300.647 435.219 300.567 435.219 300.5C435.219 300.393 435.332 300.28 435.559 300.16C435.799 300.027 436.066 299.96 436.359 299.96ZM435.459 302.48C435.819 302.347 436.166 302.28 436.499 302.28C436.832 302.28 437.086 302.333 437.259 302.44C437.446 302.533 437.539 302.633 437.539 302.74C437.539 302.807 437.459 302.88 437.299 302.96C437.152 303.04 436.959 303.153 436.719 303.3C436.492 303.433 436.239 303.607 435.959 303.82C435.692 304.033 435.439 304.307 435.199 304.64C434.972 304.96 434.779 305.353 434.619 305.82C434.472 306.287 434.399 306.833 434.399 307.46C434.399 308.38 434.606 309.073 435.019 309.54C435.432 310.007 436.006 310.24 436.739 310.24C437.206 310.24 437.679 310.16 438.159 310C438.652 309.84 439.092 309.613 439.479 309.32C439.879 309.027 440.199 308.667 440.439 308.24C440.692 307.813 440.819 307.333 440.819 306.8C440.819 306.4 440.746 306 440.599 305.6C440.466 305.2 440.272 304.82 440.019 304.46C439.779 304.087 439.486 303.74 439.139 303.42C438.806 303.1 438.439 302.827 438.039 302.6C437.652 302.387 437.332 302.227 437.079 302.12C436.839 302 436.666 301.887 436.559 301.78C436.452 301.833 436.299 301.9 436.099 301.98C435.912 302.047 435.659 302.153 435.339 302.3L435.459 302.48ZM436.799 301.54C437.412 301.74 437.999 302.04 438.559 302.44C439.039 302.8 439.479 303.193 439.879 303.62C439.492 303.167 439.072 302.76 438.619 302.4C438.099 301.973 437.519 301.64 436.879 301.4L436.799 301.54ZM440.679 308.36C440.479 308.787 440.199 309.167 439.839 309.5C440.079 309.34 440.279 309.147 440.439 308.92C440.612 308.693 440.752 308.467 440.859 308.24C440.966 308.013 441.046 307.807 441.099 307.62C441.139 307.447 441.172 307.307 441.199 307.2C441.052 307.547 440.879 307.933 440.679 308.36ZM442.019 310.08C442.006 310.107 441.986 310.133 441.959 310.16C441.946 310.173 441.932 310.18 441.919 310.18C441.906 310.18 441.939 310.113 442.019 309.98C442.099 309.833 442.192 309.667 442.299 309.48C442.419 309.28 442.532 309.073 442.639 308.86C442.732 308.7 442.799 308.56 442.839 308.44C442.652 309.013 442.379 309.56 442.019 310.08ZM443.139 306.84C443.139 307.053 443.126 307.267 443.099 307.48C443.072 307.68 443.026 307.867 442.959 308.04C443.052 307.707 443.099 307.333 443.099 306.92C443.099 306.613 443.072 306.313 443.019 306.02C442.979 305.767 442.926 305.52 442.859 305.28C442.926 305.52 442.986 305.76 443.039 306C443.106 306.267 443.139 306.547 443.139 306.84ZM436.799 301.22L436.619 301.14C436.606 301.167 436.586 301.193 436.559 301.22C436.532 301.247 436.519 301.273 436.519 301.3C436.519 301.327 436.532 301.367 436.559 301.42C436.599 301.46 436.632 301.493 436.659 301.52L436.799 301.22ZM439.999 303.76C439.959 303.707 439.919 303.66 439.879 303.62C439.919 303.673 439.959 303.72 439.999 303.76ZM442.839 308.44C442.852 308.413 442.859 308.387 442.859 308.36C442.859 308.387 442.852 308.413 442.839 308.44ZM442.879 308.32C442.866 308.333 442.859 308.347 442.859 308.36C442.859 308.347 442.866 308.333 442.879 308.32Z" fill="white"/>
<path d="M86.9292 245.72H88.1192C90.8259 245.72 93.5092 246.21 96.1692 247.19C98.8292 248.123 101.209 249.453 103.309 251.18C105.409 252.907 107.089 254.983 108.349 257.41C109.656 259.79 110.309 262.403 110.309 265.25C110.309 268.283 109.889 270.827 109.049 272.88C108.209 274.887 107.019 276.543 105.479 277.85C103.939 279.157 102.096 280.183 99.9492 280.93C97.8026 281.63 95.4226 282.213 92.8092 282.68C94.4426 282.54 96.2626 282.237 98.2692 281.77C100.323 281.303 102.236 280.487 104.009 279.32C105.829 278.107 107.346 276.45 108.559 274.35C109.773 272.203 110.379 269.403 110.379 265.95C110.379 261.703 109.189 257.877 106.809 254.47C104.429 251.063 100.883 248.497 96.1692 246.77C95.0026 246.257 93.7892 245.86 92.5292 245.58C91.3159 245.253 90.0792 245.09 88.8192 245.09C89.2392 244.857 89.7992 244.74 90.4992 244.74C91.1992 244.693 91.7592 244.67 92.1792 244.67C93.9992 244.67 95.8659 245.043 97.7792 245.79C99.7392 246.537 101.583 247.563 103.309 248.87C105.036 250.177 106.553 251.717 107.859 253.49C109.213 255.217 110.216 257.06 110.869 259.02C110.636 259.113 110.426 259.3 110.239 259.58C110.613 260.747 110.893 261.89 111.079 263.01C111.266 264.13 111.359 265.273 111.359 266.44C111.359 267.747 111.243 269.053 111.009 270.36C110.823 271.667 110.403 272.95 109.749 274.21C109.143 275.47 108.256 276.66 107.089 277.78C105.969 278.9 104.476 279.903 102.609 280.79C100.743 281.677 98.4559 282.4 95.7492 282.96C93.0426 283.567 89.8226 283.963 86.0892 284.15C85.8559 284.29 85.5292 284.36 85.1092 284.36C84.6892 284.407 84.2692 284.43 83.8492 284.43H82.8692C82.1692 284.43 81.4459 284.29 80.6992 284.01C79.9526 283.777 79.2759 283.333 78.6692 282.68C78.0626 282.073 77.5726 281.257 77.1992 280.23C76.8259 279.157 76.6392 277.827 76.6392 276.24V275.47C76.5926 275.657 76.5226 275.75 76.4292 275.75C76.2892 275.75 76.2192 275.703 76.2192 275.61V275.96C76.2192 276.8 76.2659 277.757 76.3592 278.83C76.4526 279.857 76.7092 280.837 77.1292 281.77C77.5959 282.703 78.2959 283.473 79.2292 284.08C80.2092 284.733 81.5859 285.06 83.3592 285.06C83.7792 285.06 84.1992 285.037 84.6192 284.99C85.0859 284.99 85.5759 284.92 86.0892 284.78C89.4959 284.64 92.7392 284.267 95.8192 283.66C98.9459 283.053 101.699 282.073 104.079 280.72C106.459 279.32 108.349 277.43 109.749 275.05C111.149 272.67 111.849 269.613 111.849 265.88C111.849 264.667 111.756 263.43 111.569 262.17C111.616 262.683 111.686 263.173 111.779 263.64C111.873 264.387 111.919 265.133 111.919 265.88C111.919 266.907 111.849 268.073 111.709 269.38C111.616 270.687 111.313 272.017 110.799 273.37C110.333 274.723 109.633 276.053 108.699 277.36C107.766 278.667 106.459 279.81 104.779 280.79C103.053 281.817 101.256 282.61 99.3892 283.17C97.5692 283.777 95.8192 284.22 94.1392 284.5C92.5059 284.827 91.0126 285.013 89.6592 285.06C88.3526 285.153 87.3726 285.2 86.7192 285.2H85.8792C85.4592 285.2 85.0159 285.223 84.5492 285.27C84.1292 285.363 83.6626 285.41 83.1492 285.41H82.7992C82.3792 285.41 81.8426 285.363 81.1892 285.27C80.5826 285.177 79.9292 284.943 79.2292 284.57C78.5759 284.197 77.9692 283.59 77.4092 282.75C76.8492 281.957 76.4526 280.813 76.2192 279.32C76.1259 278.807 76.0559 278.293 76.0092 277.78C75.9626 277.267 75.8926 276.8 75.7992 276.38C75.7992 275.447 75.8692 274.583 76.0092 273.79C76.1492 272.95 76.2192 272.273 76.2192 271.76V258.95L73.6992 245.72C73.7459 244.787 73.7926 243.76 73.8392 242.64C73.9326 241.52 74.0026 240.377 74.0492 239.21C74.1426 237.997 74.2126 236.807 74.2592 235.64C74.3059 234.473 74.3292 233.353 74.3292 232.28C74.3292 231.907 74.3059 231.557 74.2592 231.23C74.2592 230.857 74.2592 230.507 74.2592 230.18C74.3992 230.32 74.5392 230.39 74.6792 230.39C74.8659 230.39 75.0526 230.343 75.2392 230.25C75.4726 230.11 75.6826 230.04 75.8692 230.04C76.0092 230.04 76.1492 230.11 76.2892 230.25C76.4292 230.39 76.5459 230.647 76.6392 231.02C76.7792 231.393 76.8726 231.953 76.9192 232.7C76.9659 233.4 76.9892 234.31 76.9892 235.43H77.6192C77.8059 232.863 78.1326 230.857 78.5992 229.41C79.1126 227.963 79.6259 227.24 80.1392 227.24C80.7459 227.24 81.1892 227.987 81.4692 229.48C81.7492 230.973 81.9359 232.863 82.0292 235.15C82.1692 237.39 82.2859 239.863 82.3792 242.57C82.4726 245.23 82.6592 247.75 82.9392 250.13C83.4526 252.883 83.8726 255.823 84.1992 258.95C84.5259 262.03 84.7359 265.04 84.8292 267.98C84.8292 270.173 84.8059 271.737 84.7592 272.67C84.7126 273.603 84.6426 274.28 84.5492 274.7V276.59L86.9292 276.38C88.4226 276.38 89.9626 276.31 91.5492 276.17C93.1359 275.983 94.4659 275.703 95.5392 275.33C97.4992 275.003 99.0159 274.537 100.089 273.93C101.209 273.277 102.049 272.577 102.609 271.83C103.169 271.083 103.519 270.29 103.659 269.45C103.799 268.61 103.869 267.817 103.869 267.07C103.869 265.623 103.753 264.247 103.519 262.94C103.333 261.587 102.936 260.35 102.329 259.23C101.723 258.063 100.836 257.013 99.6692 256.08C98.5026 255.1 96.9859 254.237 95.1192 253.49C93.0659 252.697 91.5726 252.23 90.6392 252.09C89.7526 251.95 89.3092 251.67 89.3092 251.25C89.3092 251.203 89.3559 251.04 89.4492 250.76C91.4092 250.853 93.3692 251.32 95.3292 252.16C97.1492 252.953 98.8059 253.957 100.299 255.17C98.8526 253.957 97.2426 252.953 95.4692 252.16C93.5559 251.273 91.6192 250.737 89.6592 250.55C89.7992 250.363 89.8692 250.13 89.8692 249.85C89.8692 249.71 89.7992 249.523 89.6592 249.29H88.4692C88.1426 249.29 87.7926 249.313 87.4192 249.36C87.0459 249.407 86.7426 249.453 86.5092 249.5C85.3892 249.407 84.5959 249.243 84.1292 249.01C83.7092 248.777 83.4992 248.497 83.4992 248.17C83.4992 247.703 83.8726 247.237 84.6192 246.77C85.4126 246.303 86.1826 245.953 86.9292 245.72ZM105.339 265.74C105.339 267.887 105.083 269.637 104.569 270.99C104.056 272.343 103.333 273.393 102.399 274.14C103.613 273.3 104.406 272.227 104.779 270.92C105.199 269.613 105.409 267.957 105.409 265.95C105.409 265.623 105.386 265.32 105.339 265.04C105.339 264.807 105.316 264.55 105.269 264.27C105.269 264.55 105.269 264.807 105.269 265.04C105.316 265.273 105.339 265.507 105.339 265.74ZM111.429 261.33L111.499 261.61L111.429 261.33ZM100.509 255.38C100.416 255.333 100.346 255.263 100.299 255.17C100.393 255.217 100.463 255.287 100.509 255.38ZM111.499 261.68C111.499 261.773 111.499 261.843 111.499 261.89C111.499 261.843 111.499 261.773 111.499 261.68ZM137.503 275.05C137.223 275.05 136.943 275.19 136.663 275.47C135.683 275.843 134.656 276.17 133.583 276.45C132.556 276.683 131.483 276.8 130.363 276.8C127.19 276.8 124.81 275.89 123.223 274.07C121.636 272.203 120.843 269.52 120.843 266.02C120.843 264.34 120.913 262.66 121.053 260.98C121.193 259.347 121.286 257.83 121.333 256.43C121.193 257.877 121.03 259.323 120.843 260.77C120.61 262.31 120.493 263.92 120.493 265.6C120.493 266.44 120.563 267.513 120.703 268.82C120.89 270.127 121.31 271.41 121.963 272.67C122.616 273.883 123.62 274.957 124.973 275.89C126.326 276.777 128.193 277.22 130.573 277.22C131.693 277.22 132.766 277.103 133.793 276.87C134.866 276.59 135.893 276.263 136.873 275.89C136.22 276.683 135.333 277.313 134.213 277.78C133.14 278.247 131.856 278.48 130.363 278.48C128.45 278.48 126.583 278.083 124.763 277.29C122.99 276.497 121.636 275.167 120.703 273.3L121.123 272.53C120.283 271.037 119.816 269.707 119.723 268.54C119.63 267.327 119.536 266.137 119.443 264.97L120.633 252.72C120.866 250.62 121.03 248.52 121.123 246.42L120.913 246.28C120.54 248.473 120.236 250.573 120.003 252.58C119.77 254.54 119.583 256.477 119.443 258.39V256.57C119.723 254.423 119.98 252.323 120.213 250.27C120.446 248.17 120.75 246.047 121.123 243.9C121.496 241.753 121.963 239.513 122.523 237.18C123.13 234.847 123.923 232.35 124.903 229.69C126.21 227.917 126.98 226.167 127.213 224.44C127.353 224.44 127.493 224.463 127.633 224.51C127.773 224.557 128.053 224.58 128.473 224.58C128.753 224.58 128.986 224.65 129.173 224.79C129.406 224.883 129.523 225.117 129.523 225.49C129.523 225.91 129.383 226.54 129.103 227.38C129.196 227.38 129.336 227.427 129.523 227.52C129.71 227.567 129.85 227.59 129.943 227.59C130.596 226.47 131.18 225.513 131.693 224.72C132.253 223.927 132.79 223.53 133.303 223.53C133.63 223.53 133.91 223.74 134.143 224.16C134.423 224.533 134.563 225.163 134.563 226.05C134.47 227.73 134.19 229.317 133.723 230.81C133.303 232.303 132.836 233.75 132.323 235.15C131.81 236.55 131.296 237.973 130.783 239.42C130.316 240.867 129.966 242.383 129.733 243.97C129.453 245.79 129.173 247.657 128.893 249.57C128.613 251.437 128.356 253.303 128.123 255.17C127.89 257.037 127.656 258.833 127.423 260.56C127.236 262.287 127.096 263.897 127.003 265.39C127.003 266.743 127.213 268.143 127.633 269.59C127.866 269.963 128.076 270.243 128.263 270.43C128.45 270.57 128.776 270.64 129.243 270.64C129.803 270.64 130.41 270.57 131.063 270.43C131.763 270.29 132.37 270.22 132.883 270.22C133.21 270.22 133.443 270.267 133.583 270.36C133.723 270.453 133.84 270.617 133.933 270.85C133.28 271.223 132.58 271.503 131.833 271.69C131.086 271.877 130.386 271.97 129.733 271.97H128.753C128.566 271.97 128.403 271.97 128.263 271.97C128.776 272.063 129.43 272.11 130.223 272.11C131.436 272.11 132.673 271.83 133.933 271.27C133.933 271.69 134.073 272.04 134.353 272.32C134.493 272.273 134.82 272.11 135.333 271.83C135.846 271.55 136.29 271.41 136.663 271.41C137.783 271.41 138.343 271.877 138.343 272.81C138.343 272.95 138.296 273.16 138.203 273.44C138.11 273.72 137.876 274.257 137.503 275.05ZM118.953 265.67C118.953 265.343 118.953 264.923 118.953 264.41C119 263.897 119.046 263.383 119.093 262.87L119.233 261.26C119.28 260.7 119.326 260.21 119.373 259.79C119.326 260.49 119.28 261.377 119.233 262.45C119.233 263.477 119.233 264.247 119.233 264.76V267.56C119.233 267.933 119.233 268.33 119.233 268.75C119.28 269.17 119.326 269.567 119.373 269.94C119.186 269.193 119.07 268.47 119.023 267.77C118.976 267.023 118.953 266.323 118.953 265.67ZM125.813 265.39C125.813 264.317 125.883 263.267 126.023 262.24C126.163 261.213 126.28 260.163 126.373 259.09C126.14 260.163 125.953 261.213 125.813 262.24C125.72 263.267 125.626 264.317 125.533 265.39V266.37C125.533 266.697 125.556 267.047 125.603 267.42V266.93C125.603 266.697 125.626 266.44 125.673 266.16C125.72 265.88 125.766 265.623 125.813 265.39ZM119.373 259.72C119.373 259.627 119.373 259.557 119.373 259.51C119.42 259.463 119.443 259.417 119.443 259.37C119.443 259.557 119.42 259.673 119.373 259.72ZM167.791 262.66C166.531 262.66 165.574 262.637 164.921 262.59C164.314 262.543 163.754 262.52 163.241 262.52C161.841 262.52 160.604 262.59 159.531 262.73C158.457 262.87 157.547 263.15 156.801 263.57C156.054 263.99 155.494 264.597 155.121 265.39C154.747 266.183 154.561 267.233 154.561 268.54C154.561 270.453 154.771 271.877 155.191 272.81C155.657 273.697 156.287 274.35 157.081 274.77C157.921 275.143 158.924 275.377 160.091 275.47C161.257 275.563 162.564 275.773 164.011 276.1C164.851 276.193 165.691 276.263 166.531 276.31C167.371 276.31 168.211 276.31 169.051 276.31H174.091C171.757 276.17 169.424 276.1 167.091 276.1C164.804 276.053 162.727 275.843 160.861 275.47C159.041 275.097 157.547 274.443 156.381 273.51C155.261 272.577 154.701 271.153 154.701 269.24C154.701 267.7 154.887 266.533 155.261 265.74C155.681 264.9 156.217 264.293 156.871 263.92C157.571 263.5 158.387 263.267 159.321 263.22C160.254 263.127 161.257 263.08 162.331 263.08C163.637 263.08 164.967 263.15 166.321 263.29C165.247 263.617 164.151 263.873 163.031 264.06C161.957 264.2 160.954 264.363 160.021 264.55C159.087 264.69 158.271 264.9 157.571 265.18C156.917 265.413 156.474 265.763 156.241 266.23V269.38L155.681 269.66C155.867 270.827 156.031 271.713 156.171 272.32C156.357 272.88 156.824 273.323 157.571 273.65C158.317 273.93 159.507 274.163 161.141 274.35C162.821 274.537 165.247 274.84 168.421 275.26H173.461C174.347 275.26 174.861 275.237 175.001 275.19C175.187 275.097 175.304 275.05 175.351 275.05L174.721 271.27C174.627 270.337 174.511 269.497 174.371 268.75C174.231 268.003 174.044 267.21 173.811 266.37C173.764 266.51 173.624 266.58 173.391 266.58C173.624 267.373 173.811 268.213 173.951 269.1C174.137 269.987 174.277 270.827 174.371 271.62C174.511 272.413 174.604 273.09 174.651 273.65C174.744 274.21 174.837 274.537 174.931 274.63L174.511 274.77C174.417 274.817 174.277 274.84 174.091 274.84H173.671C173.344 274.84 172.971 274.817 172.551 274.77C172.131 274.677 171.594 274.63 170.941 274.63H168.631C166.811 274.63 165.131 274.537 163.591 274.35C162.144 274.163 160.884 273.93 159.811 273.65C160.884 273.883 162.191 274.07 163.731 274.21C165.364 274.397 166.881 274.49 168.281 274.49C168.887 274.49 169.517 274.49 170.171 274.49C170.871 274.443 171.617 274.42 172.411 274.42H174.721C174.581 274.28 174.417 274.21 174.231 274.21H174.091C173.904 270.99 173.484 267.91 172.831 264.97C172.177 262.03 171.127 259.463 169.681 257.27C168.234 255.03 166.344 253.257 164.011 251.95C161.677 250.597 158.761 249.92 155.261 249.92C154.281 249.92 153.301 249.99 152.321 250.13C151.341 250.27 150.337 250.457 149.311 250.69C149.404 250.597 149.451 250.503 149.451 250.41C149.451 250.177 149.357 249.967 149.171 249.78C148.984 249.547 148.891 249.313 148.891 249.08C148.891 248.8 149.171 248.543 149.731 248.31C150.337 248.03 151.597 247.773 153.511 247.54C153.417 247.447 153.347 247.307 153.301 247.12C153.301 246.933 153.301 246.793 153.301 246.7C150.781 246.7 148.821 246.653 147.421 246.56C146.021 246.42 145.321 246.07 145.321 245.51C145.321 245.277 145.601 244.95 146.161 244.53C146.767 244.11 147.607 243.713 148.681 243.34C149.754 242.92 151.037 242.57 152.531 242.29C154.071 241.963 155.774 241.8 157.641 241.8C161.234 241.8 164.314 242.36 166.881 243.48C169.447 244.553 171.594 246 173.321 247.82C175.094 249.593 176.517 251.623 177.591 253.91C178.711 256.197 179.597 258.507 180.251 260.84C180.951 263.127 181.464 265.367 181.791 267.56C182.117 269.707 182.421 271.573 182.701 273.16C182.701 273.44 182.701 273.72 182.701 274C182.747 274.28 182.771 274.607 182.771 274.98C182.771 276.333 182.514 277.523 182.001 278.55C181.534 279.53 180.857 280.347 179.971 281C179.131 281.7 178.127 282.213 176.961 282.54C175.841 282.913 174.627 283.1 173.321 283.1C172.294 283.1 170.964 283.077 169.331 283.03C167.697 282.983 166.134 282.843 164.641 282.61C163.661 282.377 162.587 282.19 161.421 282.05C160.254 281.957 159.064 281.77 157.851 281.49C156.637 281.21 155.447 280.813 154.281 280.3C153.161 279.787 152.134 279.017 151.201 277.99C150.314 276.917 149.591 275.54 149.031 273.86C148.517 272.18 148.261 270.057 148.261 267.49C148.261 265.063 148.821 263.127 149.941 261.68C151.061 260.187 152.391 259.043 153.931 258.25C155.517 257.41 157.127 256.873 158.761 256.64C160.394 256.36 161.724 256.22 162.751 256.22C164.057 256.22 164.921 256.313 165.341 256.5C165.761 256.687 165.971 256.873 165.971 257.06C165.971 257.2 165.947 257.317 165.901 257.41C164.734 257.41 163.241 257.457 161.421 257.55C159.601 257.643 157.827 257.947 156.101 258.46C154.421 258.973 152.974 259.767 151.761 260.84C150.547 261.867 149.941 263.337 149.941 265.25C150.361 263.523 151.061 262.17 152.041 261.19C153.067 260.163 154.234 259.417 155.541 258.95C156.847 258.437 158.177 258.133 159.531 258.04C160.931 257.9 162.191 257.83 163.311 257.83H165.691C165.504 258.017 165.411 258.203 165.411 258.39C165.411 258.577 165.504 258.74 165.691 258.88H168.421C169.167 259.02 169.704 259.277 170.031 259.65C170.357 259.977 170.521 260.28 170.521 260.56C170.521 260.98 170.311 261.353 169.891 261.68C169.471 262.007 168.771 262.333 167.791 262.66ZM156.031 279.6C157.337 280.113 158.667 280.51 160.021 280.79C161.421 281.07 162.797 281.257 164.151 281.35C165.504 281.49 166.764 281.56 167.931 281.56C166.997 281.467 166.064 281.303 165.131 281.07C164.151 280.837 163.287 280.627 162.541 280.44C161.747 280.253 160.954 280.137 160.161 280.09C159.414 279.997 158.621 279.88 157.781 279.74C156.987 279.6 156.171 279.39 155.331 279.11C154.491 278.783 153.651 278.317 152.811 277.71C153.697 278.503 154.771 279.133 156.031 279.6ZM156.731 272.25C156.684 272.203 156.824 272.343 157.151 272.67C157.431 272.95 157.804 273.16 158.271 273.3C158.037 273.207 157.687 273.09 157.221 272.95C156.707 272.763 156.451 272.483 156.451 272.11L156.731 272.25ZM158.481 273.3C158.434 273.3 158.364 273.3 158.271 273.3C158.317 273.3 158.387 273.3 158.481 273.3ZM196.609 269.73C197.355 269.963 198.242 270.383 199.269 270.99C200.342 271.597 201.532 272.227 202.839 272.88C204.145 273.533 205.569 274.117 207.109 274.63C208.695 275.143 210.375 275.4 212.149 275.4H212.919C213.199 275.4 213.525 275.353 213.899 275.26L214.669 275.82C216.489 275.26 217.982 274.21 219.149 272.67C220.315 271.083 220.899 268.96 220.899 266.3C220.899 264.387 220.432 263.08 219.499 262.38C218.612 261.633 216.955 261.26 214.529 261.26C213.035 261.26 211.472 261.377 209.839 261.61C208.252 261.797 206.572 261.89 204.799 261.89C204.005 261.89 203.189 261.867 202.349 261.82C201.509 261.727 200.645 261.563 199.759 261.33V261.75C201.625 262.217 203.469 262.45 205.289 262.45C207.062 262.45 208.742 262.357 210.329 262.17C211.962 261.937 213.525 261.82 215.019 261.82C216.279 261.82 217.259 261.96 217.959 262.24C218.705 262.473 219.265 262.8 219.639 263.22C220.012 263.64 220.245 264.153 220.339 264.76C220.479 265.32 220.549 265.95 220.549 266.65C220.549 268.843 219.965 270.71 218.799 272.25C217.679 273.697 216.349 274.607 214.809 274.98C216.535 274.373 217.889 273.323 218.869 271.83C219.895 270.243 220.409 268.47 220.409 266.51C220.409 265.11 220.035 264.037 219.289 263.29C218.589 262.543 217.352 262.17 215.579 262.17C214.132 262.17 212.499 262.263 210.679 262.45C208.859 262.637 206.922 262.73 204.869 262.73C203.609 262.73 202.139 262.567 200.459 262.24C198.825 261.913 197.262 261.307 195.769 260.42C194.275 259.533 193.015 258.32 191.989 256.78C190.962 255.193 190.449 253.14 190.449 250.62C190.449 248.613 190.845 246.77 191.639 245.09C192.479 243.363 193.575 241.87 194.929 240.61C196.282 239.303 197.822 238.277 199.549 237.53C201.322 236.783 203.142 236.387 205.009 236.34C206.782 236.34 208.462 236.597 210.049 237.11C211.682 237.577 213.222 238.207 214.669 239C216.115 239.747 217.492 240.587 218.799 241.52C220.105 242.453 221.319 243.387 222.439 244.32L221.039 245.72C220.712 245.72 220.222 245.533 219.569 245.16C218.915 244.74 217.912 244.04 216.559 243.06L216.139 243.69C217.819 245.043 219.032 246.303 219.779 247.47C220.572 248.637 220.969 249.547 220.969 250.2C220.875 250.573 220.642 250.76 220.269 250.76C219.895 250.76 219.149 250.457 218.029 249.85C216.909 249.243 215.625 248.567 214.179 247.82C212.779 247.073 211.285 246.397 209.699 245.79C208.112 245.183 206.665 244.88 205.359 244.88C204.612 244.88 203.865 245.02 203.119 245.3C202.372 245.58 201.695 245.977 201.089 246.49C200.482 246.957 199.969 247.54 199.549 248.24C199.175 248.94 198.989 249.71 198.989 250.55C198.989 251.903 199.619 252.813 200.879 253.28C202.139 253.747 203.795 253.98 205.849 253.98C206.269 253.98 206.712 253.98 207.179 253.98C207.692 253.933 208.159 253.863 208.579 253.77C209.652 253.77 210.352 253.747 210.679 253.7C211.052 253.607 211.402 253.56 211.729 253.56C213.735 253.56 215.742 253.7 217.749 253.98C219.755 254.26 221.552 254.867 223.139 255.8C224.725 256.733 226.009 258.063 226.989 259.79C227.969 261.517 228.459 263.827 228.459 266.72C228.459 268.727 228.109 270.733 227.409 272.74C226.755 274.7 225.752 276.473 224.399 278.06C223.045 279.6 221.365 280.837 219.359 281.77C217.352 282.75 214.995 283.24 212.289 283.24C210.655 283.24 208.719 282.913 206.479 282.26C204.285 281.653 202.185 280.93 200.179 280.09C198.219 279.203 196.539 278.293 195.139 277.36C193.785 276.427 193.109 275.633 193.109 274.98C193.109 274.793 193.225 274.653 193.459 274.56C196.305 276.66 199.199 278.387 202.139 279.74C205.032 281 207.995 281.7 211.029 281.84C209.535 281.747 208.042 281.49 206.549 281.07C205.009 280.603 203.469 280.043 201.929 279.39C200.435 278.69 198.989 277.92 197.589 277.08C196.235 276.193 194.929 275.307 193.669 274.42L194.719 273.51C194.579 273.463 194.322 273.3 193.949 273.02C193.575 272.74 193.202 272.39 192.829 271.97C192.502 271.55 192.199 271.107 191.919 270.64C191.639 270.173 191.499 269.73 191.499 269.31C191.499 268.843 191.592 268.54 191.779 268.4C191.965 268.26 192.175 268.19 192.409 268.19C192.642 268.19 193.132 268.353 193.879 268.68C194.625 269.007 195.535 269.357 196.609 269.73ZM212.079 276.87C210.445 276.87 208.625 276.543 206.619 275.89C204.659 275.19 202.792 274.303 201.019 273.23C202.465 274.21 204.075 275.097 205.849 275.89C207.622 276.637 209.675 277.01 212.009 277.01C215.135 277.01 217.609 276.053 219.429 274.14C221.295 272.227 222.229 269.66 222.229 266.44V265.74C221.995 264.247 221.482 263.033 220.689 262.1C219.942 261.12 218.775 260.583 217.189 260.49C218.169 260.677 218.962 260.98 219.569 261.4C220.222 261.82 220.712 262.333 221.039 262.94C221.412 263.5 221.669 264.13 221.809 264.83C221.949 265.53 222.019 266.253 222.019 267C221.832 270.08 220.852 272.507 219.079 274.28C217.305 276.007 214.972 276.87 212.079 276.87ZM220.969 279.6C222.135 278.853 223.069 277.943 223.769 276.87C224.469 275.797 225.075 274.677 225.589 273.51C224.609 275.47 223.255 277.197 221.529 278.69C219.849 280.183 217.842 281.117 215.509 281.49C216.395 281.35 217.305 281.163 218.239 280.93C219.219 280.65 220.129 280.207 220.969 279.6ZM227.619 266.44C227.619 265.927 227.525 265.437 227.339 264.97C227.199 264.597 227.082 264.2 226.989 263.78L227.059 264.69C227.105 265.063 227.129 265.577 227.129 266.23C227.129 267.49 226.989 268.703 226.709 269.87C226.429 271.037 226.079 272.18 225.659 273.3C226.079 272.273 226.475 271.2 226.849 270.08C227.269 268.913 227.525 267.7 227.619 266.44ZM226.989 263.57C226.989 263.617 226.989 263.687 226.989 263.78C226.989 263.687 226.989 263.617 226.989 263.57ZM214.739 275.05C214.692 275.05 214.645 275.05 214.599 275.05C214.645 275.05 214.692 275.05 214.739 275.05ZM261.819 246C261.399 246 260.816 246.07 260.069 246.21C259.369 246.35 258.646 246.513 257.899 246.7C257.199 246.887 256.546 247.073 255.939 247.26C255.379 247.447 255.029 247.587 254.889 247.68C256.103 247.493 257.223 247.283 258.249 247.05C259.276 246.77 260.396 246.63 261.609 246.63C261.376 247.05 261.073 247.377 260.699 247.61C260.326 247.843 259.906 248.03 259.439 248.17C259.019 248.263 258.553 248.357 258.039 248.45C257.526 248.497 256.989 248.59 256.429 248.73L255.939 248.1C255.053 248.427 254.376 248.637 253.909 248.73C253.443 248.777 252.953 248.8 252.439 248.8C251.879 248.8 251.296 248.8 250.689 248.8C250.129 248.753 249.499 248.73 248.799 248.73C248.799 248.963 248.776 249.15 248.729 249.29C249.803 249.29 250.713 249.29 251.459 249.29C252.206 249.243 253.116 249.15 254.189 249.01C253.163 249.197 252.253 249.337 251.459 249.43C250.713 249.523 249.803 249.57 248.729 249.57C248.543 250.643 248.379 251.693 248.239 252.72C248.099 253.747 248.029 254.75 248.029 255.73C248.029 256.29 248.053 256.943 248.099 257.69C248.146 258.437 248.193 259.207 248.239 260C248.333 260.747 248.403 261.47 248.449 262.17C248.496 262.823 248.519 263.313 248.519 263.64V267.84C248.753 268.773 249.429 269.473 250.549 269.94C251.669 270.407 253.279 270.64 255.379 270.64H257.619C258.413 270.64 258.949 270.733 259.229 270.92C259.556 271.06 259.719 271.27 259.719 271.55C259.719 271.783 259.533 271.923 259.159 271.97C258.786 271.97 258.413 271.97 258.039 271.97C256.686 271.97 255.263 271.877 253.769 271.69C252.369 271.503 250.993 271.293 249.639 271.06C250.993 271.387 252.416 271.69 253.909 271.97C255.449 272.203 256.943 272.32 258.389 272.32H259.019C259.206 272.32 259.416 272.297 259.649 272.25C259.649 272.483 259.649 272.693 259.649 272.88C259.696 273.067 259.766 273.277 259.859 273.51L260.419 273.37C260.559 273.323 260.723 273.3 260.909 273.3C261.096 273.253 261.236 273.183 261.329 273.09C262.823 273.23 263.569 273.743 263.569 274.63C263.569 275.143 263.429 275.563 263.149 275.89C262.869 276.217 262.519 276.473 262.099 276.66C261.679 276.847 261.213 276.987 260.699 277.08C260.186 277.127 259.696 277.15 259.229 277.15C257.596 277.15 255.986 277.057 254.399 276.87C252.859 276.637 251.343 276.403 249.849 276.17C251.156 276.637 252.813 277.01 254.819 277.29C256.826 277.57 258.856 277.71 260.909 277.71C260.396 278.037 259.789 278.293 259.089 278.48C258.389 278.667 257.666 278.76 256.919 278.76L251.879 278.13C251.226 278.037 250.713 277.943 250.339 277.85C250.013 277.757 249.686 277.663 249.359 277.57C249.033 277.43 248.659 277.29 248.239 277.15C247.866 277.01 247.329 276.847 246.629 276.66V275.89C245.416 275.563 244.436 275.003 243.689 274.21C242.943 273.417 242.359 272.553 241.939 271.62C241.519 270.687 241.239 269.753 241.099 268.82C240.959 267.84 240.889 266.977 240.889 266.23C240.889 265.437 240.889 264.713 240.889 264.06C240.936 263.36 240.959 262.66 240.959 261.96C240.959 261.447 240.936 260.793 240.889 260C240.889 259.207 240.866 258.367 240.819 257.48C240.773 256.593 240.726 255.683 240.679 254.75C240.679 253.817 240.679 252.93 240.679 252.09C240.679 251.577 240.679 251.087 240.679 250.62C240.726 250.153 240.773 249.733 240.819 249.36H240.119C240.073 249.687 240.049 250.06 240.049 250.48V251.74C240.049 253.093 240.073 254.447 240.119 255.8C240.166 257.107 240.189 258.32 240.189 259.44C240.236 260.56 240.283 261.54 240.329 262.38C240.376 263.173 240.399 263.757 240.399 264.13V266.93V267.49C240.259 266.23 240.119 264.433 239.979 262.1C239.839 259.393 239.769 256.407 239.769 253.14V251.88C239.769 251.367 239.769 250.877 239.769 250.41C239.816 249.943 239.886 249.593 239.979 249.36L237.599 249.22C237.086 248.893 236.573 248.637 236.059 248.45C235.546 248.263 235.079 248.17 234.659 248.17V246.77C234.659 246.49 234.683 246.257 234.729 246.07C234.823 245.837 235.056 245.72 235.429 245.72C235.523 245.72 235.756 245.767 236.129 245.86V245.02C235.616 244.74 235.196 244.367 234.869 243.9C234.543 243.387 234.379 242.873 234.379 242.36C234.379 241.147 235.243 240.54 236.969 240.54C237.623 240.54 238.299 240.587 238.999 240.68C239.699 240.773 240.423 240.843 241.169 240.89C241.356 239.863 241.519 238.953 241.659 238.16C241.799 237.32 241.939 236.527 242.079 235.78C242.219 234.987 242.383 234.217 242.569 233.47C242.756 232.677 242.989 231.86 243.269 231.02C243.689 230.087 244.016 229.083 244.249 228.01C244.483 226.89 244.646 225.793 244.739 224.72L246.209 224.79C246.443 224.79 246.629 224.86 246.769 225C246.956 225.14 247.049 225.467 247.049 225.98C247.049 226.4 246.979 226.96 246.839 227.66L247.679 227.87C248.053 226.61 248.496 225.583 249.009 224.79C249.569 223.997 250.106 223.6 250.619 223.6C251.413 223.6 251.903 224.603 252.089 226.61V227.87C252.089 229.083 251.996 230.227 251.809 231.3C251.669 232.327 251.483 233.353 251.249 234.38C251.016 235.407 250.783 236.457 250.549 237.53C250.316 238.603 250.106 239.77 249.919 241.03C250.946 241.17 251.949 241.24 252.929 241.24C253.396 241.24 253.863 241.24 254.329 241.24C254.796 241.193 255.263 241.17 255.729 241.17C256.196 241.17 256.686 240.983 257.199 240.61C257.713 240.237 258.179 240.05 258.599 240.05C258.973 240.05 259.253 240.167 259.439 240.4C259.626 240.633 259.719 240.89 259.719 241.17C258.879 241.403 258.039 241.66 257.199 241.94C256.406 242.173 255.636 242.407 254.889 242.64C255.636 242.547 256.429 242.383 257.269 242.15C258.109 241.87 258.996 241.613 259.929 241.38C259.929 241.613 259.929 241.823 259.929 242.01C259.976 242.197 260.046 242.407 260.139 242.64C260.233 242.64 260.349 242.617 260.489 242.57C260.769 242.477 260.933 242.43 260.979 242.43C261.446 242.663 261.749 242.967 261.889 243.34C262.029 243.667 262.099 244.04 262.099 244.46C262.099 244.787 262.053 245.09 261.959 245.37C261.866 245.603 261.819 245.813 261.819 246ZM243.269 271.83C242.616 270.57 242.266 269.333 242.219 268.12C242.173 266.907 242.103 265.763 242.009 264.69L241.379 254.05L241.169 255.31C241.169 258.437 241.263 261.283 241.449 263.85C241.683 266.37 242.009 268.33 242.429 269.73C242.429 270.15 242.406 270.43 242.359 270.57C242.359 270.71 242.359 270.827 242.359 270.92C242.359 271.013 242.406 271.13 242.499 271.27C242.639 271.41 242.896 271.597 243.269 271.83ZM247.259 268.05C247.166 267.677 247.119 267.28 247.119 266.86V263.43C247.073 263.897 247.026 264.363 246.979 264.83C246.933 265.25 246.909 265.693 246.909 266.16C246.909 267.373 246.979 268.307 247.119 268.96C247.259 269.52 247.539 269.987 247.959 270.36C247.726 270.08 247.563 269.777 247.469 269.45C247.423 269.077 247.353 268.61 247.259 268.05ZM240.469 267.98L240.399 267.49L240.469 267.98ZM248.099 270.43C248.053 270.383 248.006 270.36 247.959 270.36C248.006 270.36 248.053 270.383 248.099 270.43ZM308.689 256.22C307.755 257.06 306.635 257.877 305.329 258.67C304.022 259.463 302.669 260.21 301.269 260.91C299.869 261.563 298.492 262.147 297.139 262.66C295.785 263.127 294.572 263.5 293.499 263.78C292.425 264.107 291.445 264.433 290.559 264.76C289.672 265.04 288.832 265.367 288.039 265.74C287.245 266.113 286.452 266.533 285.659 267C284.865 267.467 284.049 268.027 283.209 268.68C282.602 269.147 282.089 269.52 281.669 269.8C281.295 270.08 280.969 270.313 280.689 270.5C280.455 270.687 280.245 270.827 280.059 270.92C279.919 271.013 279.779 271.107 279.639 271.2L282.159 271.41C284.119 271.597 286.009 271.807 287.829 272.04C289.649 272.227 291.492 272.437 293.359 272.67C294.152 272.763 294.619 272.833 294.759 272.88C294.899 272.88 295.039 272.88 295.179 272.88C299.005 273.113 301.689 273.3 303.229 273.44C304.769 273.533 305.539 273.86 305.539 274.42C305.539 274.607 305.515 274.723 305.469 274.77C303.555 274.677 301.689 274.513 299.869 274.28C298.095 274 295.995 273.813 293.569 273.72C292.635 273.58 291.539 273.463 290.279 273.37C289.065 273.23 287.782 273.137 286.429 273.09C285.122 272.997 283.792 272.927 282.439 272.88C281.132 272.833 279.895 272.81 278.729 272.81C277.655 272.81 276.699 272.833 275.859 272.88C275.019 272.88 274.342 272.927 273.829 273.02C275.089 273.02 276.582 273.043 278.309 273.09C280.035 273.137 281.809 273.207 283.629 273.3C285.449 273.347 287.222 273.44 288.949 273.58C290.722 273.673 292.239 273.813 293.499 274L295.949 274.35C297.582 274.583 299.099 274.723 300.499 274.77C301.945 274.817 303.509 274.933 305.189 275.12C304.955 275.353 304.839 275.587 304.839 275.82C304.839 276.24 305.119 276.427 305.679 276.38C306.285 276.333 307.125 276.38 308.199 276.52C309.132 276.893 309.785 277.243 310.159 277.57C310.579 277.85 310.789 278.13 310.789 278.41C310.789 278.69 310.602 278.97 310.229 279.25C309.855 279.483 309.389 279.67 308.829 279.81L307.079 280.3C305.165 279.973 303.322 279.763 301.549 279.67C299.822 279.53 297.909 279.343 295.809 279.11L293.989 278.9C292.495 278.713 291.025 278.55 289.579 278.41C288.132 278.27 286.639 278.13 285.099 277.99L277.679 277.43C277.165 277.383 276.605 277.36 275.999 277.36C275.392 277.313 274.762 277.29 274.109 277.29H272.849C272.429 277.29 271.985 277.313 271.519 277.36L270.259 277.43V272.04C270.259 270.593 270.609 269.473 271.309 268.68C272.009 267.84 272.779 267.21 273.619 266.79C274.039 266.557 274.459 266.37 274.879 266.23C274.785 266.23 274.692 266.253 274.599 266.3C273.899 266.533 273.199 266.883 272.499 267.35C271.845 267.77 271.262 268.353 270.749 269.1C270.282 269.847 270.049 270.827 270.049 272.04L269.979 277.57H276.769L281.039 277.78C283.232 277.92 285.355 278.107 287.409 278.34C289.509 278.573 291.585 278.83 293.639 279.11L295.879 279.46C297.652 279.647 299.309 279.833 300.849 280.02C302.389 280.207 303.975 280.417 305.609 280.65C304.955 280.79 304.232 280.907 303.439 281C302.692 281.14 301.852 281.21 300.919 281.21C300.032 281.21 299.239 281.163 298.539 281.07C297.839 280.977 297.022 280.883 296.089 280.79L293.849 280.51C292.215 280.277 290.652 280.09 289.159 279.95C287.665 279.763 286.055 279.577 284.329 279.39L283.909 278.62H278.239C278.005 278.62 277.749 278.643 277.469 278.69C277.189 278.69 276.862 278.69 276.489 278.69H274.739C274.132 278.69 273.525 278.69 272.919 278.69C272.312 278.643 271.659 278.573 270.959 278.48L268.999 278.2V272.11C268.999 270.57 269.325 269.333 269.979 268.4C270.679 267.42 271.472 266.65 272.359 266.09C273.245 265.53 274.132 265.087 275.019 264.76C275.905 264.433 276.582 264.13 277.049 263.85L278.659 262.59C280.525 261.19 282.485 259.953 284.539 258.88C286.592 257.807 288.739 256.967 290.979 256.36L292.029 256.08C293.055 255.567 294.152 255.123 295.319 254.75C296.485 254.377 297.582 253.91 298.609 253.35L298.399 253C297.232 253.513 296.042 253.957 294.829 254.33C293.662 254.703 292.659 255.1 291.819 255.52L290.769 255.8C288.435 256.453 286.195 257.34 284.049 258.46C281.949 259.58 280.035 260.817 278.309 262.17L276.909 263.36H276.629C276.489 263.36 276.302 263.407 276.069 263.5L276.769 263.15C279.289 261.003 281.739 259.347 284.119 258.18C286.545 256.967 288.949 256.01 291.329 255.31C293.102 254.657 294.549 254.167 295.669 253.84C296.789 253.467 297.839 253.023 298.819 252.51C296.999 252.09 295.389 251.81 293.989 251.67C292.589 251.483 291.282 251.39 290.069 251.39C289.462 251.39 288.879 251.413 288.319 251.46C287.759 251.46 287.199 251.483 286.639 251.53C286.312 251.483 285.985 251.46 285.659 251.46H284.749C283.115 251.46 281.529 251.623 279.989 251.95C278.495 252.277 277.072 252.72 275.719 253.28C275.719 252.953 275.579 252.697 275.299 252.51C275.065 252.277 274.949 251.997 274.949 251.67C274.949 251.39 275.252 251.04 275.859 250.62C276.512 250.2 277.702 249.803 279.429 249.43L279.289 248.73C277.702 248.963 276.325 249.173 275.159 249.36C273.992 249.547 273.012 249.64 272.219 249.64C271.705 249.64 271.309 249.617 271.029 249.57C270.795 249.523 270.632 249.36 270.539 249.08C270.539 248.987 270.562 248.893 270.609 248.8C270.655 248.707 270.679 248.613 270.679 248.52C271.612 247.587 272.755 246.77 274.109 246.07C275.462 245.323 276.955 244.717 278.589 244.25C280.269 243.737 282.042 243.363 283.909 243.13C285.775 242.85 287.689 242.71 289.649 242.71C291.095 242.71 292.705 242.827 294.479 243.06C296.299 243.293 298.305 243.597 300.499 243.97C300.965 244.11 301.385 244.25 301.759 244.39C302.132 244.483 302.529 244.6 302.949 244.74C303.369 244.88 303.835 245.043 304.349 245.23C304.862 245.417 305.492 245.65 306.239 245.93C306.192 245.883 306.495 246 307.149 246.28C307.849 246.56 308.549 247.073 309.249 247.82L308.689 256.22ZM268.439 272.11C268.439 271.037 268.555 270.15 268.789 269.45C269.069 268.75 269.442 268.143 269.909 267.63C269.535 268.19 269.209 268.82 268.929 269.52C268.695 270.22 268.579 270.99 268.579 271.83V278.41L270.749 278.83C271.402 278.97 272.055 279.063 272.709 279.11C273.362 279.157 273.992 279.18 274.599 279.18C275.252 279.18 275.835 279.18 276.349 279.18C276.862 279.133 277.375 279.11 277.889 279.11L283.279 279.18L277.959 279.25H277.189C276.769 279.25 276.302 279.273 275.789 279.32C275.322 279.32 274.809 279.32 274.249 279.32C273.735 279.32 273.175 279.297 272.569 279.25C271.962 279.203 271.332 279.11 270.679 278.97L268.439 278.55V272.11ZM275.509 263.85L274.039 264.83C273.479 265.203 272.802 265.577 272.009 265.95C271.262 266.323 270.562 266.883 269.909 267.63C270.795 266.323 271.869 265.367 273.129 264.76C274.389 264.107 275.369 263.687 276.069 263.5L275.509 263.85ZM278.799 269.73C278.145 269.73 277.562 269.987 277.049 270.5C276.582 270.967 276.209 271.293 275.929 271.48L276.069 271.55C276.302 271.41 276.745 271.153 277.399 270.78C278.052 270.407 278.752 270.01 279.499 269.59C280.245 269.17 280.969 268.773 281.669 268.4C282.369 267.98 282.905 267.653 283.279 267.42C283.045 267.56 282.695 267.747 282.229 267.98C281.809 268.167 281.365 268.377 280.899 268.61C280.432 268.843 279.989 269.077 279.569 269.31C279.195 269.497 278.939 269.637 278.799 269.73ZM276.139 265.74C276.932 265.46 277.445 265.11 277.679 264.69L278.099 264.41C278.939 263.757 279.802 263.08 280.689 262.38C281.622 261.633 282.579 260.957 283.559 260.35C282.252 261.003 281.062 261.82 279.989 262.8C278.915 263.733 277.702 264.62 276.349 265.46C276.115 265.6 275.859 265.74 275.579 265.88C275.765 265.833 275.952 265.787 276.139 265.74ZM331.899 238.86C331.945 239.093 332.202 239.21 332.669 239.21H332.809C333.089 239.21 333.275 239.233 333.369 239.28C335.795 240.027 338.199 241.123 340.579 242.57C343.005 243.97 345.175 245.673 347.089 247.68C349.049 249.64 350.612 251.88 351.779 254.4C352.992 256.92 353.599 259.627 353.599 262.52C353.599 265.04 353.109 267.467 352.129 269.8C351.149 272.133 349.795 274.163 348.069 275.89C349.842 274.35 351.242 272.437 352.269 270.15C353.342 267.817 353.879 265.32 353.879 262.66C353.879 259.673 353.249 256.897 351.989 254.33C350.729 251.717 349.119 249.383 347.159 247.33C345.199 245.277 343.005 243.527 340.579 242.08C338.199 240.587 335.865 239.443 333.579 238.65C335.352 238.65 337.149 239.047 338.969 239.84C340.835 240.633 342.609 241.683 344.289 242.99C345.969 244.25 347.509 245.72 348.909 247.4C350.355 249.033 351.569 250.713 352.549 252.44L352.059 253.14C352.992 254.54 353.692 256.057 354.159 257.69C354.672 259.323 354.929 261.003 354.929 262.73C354.929 266.043 354.205 268.96 352.759 271.48C351.359 273.953 349.562 276.03 347.369 277.71C345.222 279.343 342.842 280.58 340.229 281.42C337.662 282.26 335.235 282.68 332.949 282.68C331.642 282.68 330.312 282.54 328.959 282.26C327.652 281.98 326.322 281.513 324.969 280.86V281.28C326.275 282.027 327.605 282.54 328.959 282.82C330.359 283.1 331.735 283.24 333.089 283.24C336.449 283.24 339.739 282.493 342.959 281C346.225 279.553 348.979 277.5 351.219 274.84C349.072 277.593 346.389 279.74 343.169 281.28C339.995 282.82 336.682 283.59 333.229 283.59C329.682 283.59 326.812 282.89 324.619 281.49C322.425 280.137 320.699 278.457 319.439 276.45C318.225 274.443 317.409 272.32 316.989 270.08C316.569 267.84 316.359 265.833 316.359 264.06C316.359 261.68 316.662 259.347 317.269 257.06C317.922 254.773 318.902 252.673 320.209 250.76C321.515 248.847 323.195 247.213 325.249 245.86C327.302 244.46 329.775 243.48 332.669 242.92L330.639 242.43C329.659 242.197 328.959 241.917 328.539 241.59C328.119 241.263 327.909 240.983 327.909 240.75C327.909 240.377 328.305 239.98 329.099 239.56C329.939 239.093 330.872 238.86 331.899 238.86ZM328.749 247.68C330.009 247.213 331.222 246.98 332.389 246.98C333.555 246.98 334.442 247.167 335.049 247.54C335.702 247.867 336.029 248.217 336.029 248.59C336.029 248.823 335.749 249.08 335.189 249.36C334.675 249.64 333.999 250.037 333.159 250.55C332.365 251.017 331.479 251.623 330.499 252.37C329.565 253.117 328.679 254.073 327.839 255.24C327.045 256.36 326.369 257.737 325.809 259.37C325.295 261.003 325.039 262.917 325.039 265.11C325.039 268.33 325.762 270.757 327.209 272.39C328.655 274.023 330.662 274.84 333.229 274.84C334.862 274.84 336.519 274.56 338.199 274C339.925 273.44 341.465 272.647 342.819 271.62C344.219 270.593 345.339 269.333 346.179 267.84C347.065 266.347 347.509 264.667 347.509 262.8C347.509 261.4 347.252 260 346.739 258.6C346.272 257.2 345.595 255.87 344.709 254.61C343.869 253.303 342.842 252.09 341.629 250.97C340.462 249.85 339.179 248.893 337.779 248.1C336.425 247.353 335.305 246.793 334.419 246.42C333.579 246 332.972 245.603 332.599 245.23C332.225 245.417 331.689 245.65 330.989 245.93C330.335 246.163 329.449 246.537 328.329 247.05L328.749 247.68ZM333.439 244.39C335.585 245.09 337.639 246.14 339.599 247.54C341.279 248.8 342.819 250.177 344.219 251.67C342.865 250.083 341.395 248.66 339.809 247.4C337.989 245.907 335.959 244.74 333.719 243.9L333.439 244.39ZM347.019 268.26C346.319 269.753 345.339 271.083 344.079 272.25C344.919 271.69 345.619 271.013 346.179 270.22C346.785 269.427 347.275 268.633 347.649 267.84C348.022 267.047 348.302 266.323 348.489 265.67C348.629 265.063 348.745 264.573 348.839 264.2C348.325 265.413 347.719 266.767 347.019 268.26ZM351.709 274.28C351.662 274.373 351.592 274.467 351.499 274.56C351.452 274.607 351.405 274.63 351.359 274.63C351.312 274.63 351.429 274.397 351.709 273.93C351.989 273.417 352.315 272.833 352.689 272.18C353.109 271.48 353.505 270.757 353.879 270.01C354.205 269.45 354.439 268.96 354.579 268.54C353.925 270.547 352.969 272.46 351.709 274.28ZM355.629 262.94C355.629 263.687 355.582 264.433 355.489 265.18C355.395 265.88 355.232 266.533 354.999 267.14C355.325 265.973 355.489 264.667 355.489 263.22C355.489 262.147 355.395 261.097 355.209 260.07C355.069 259.183 354.882 258.32 354.649 257.48C354.882 258.32 355.092 259.16 355.279 260C355.512 260.933 355.629 261.913 355.629 262.94ZM333.439 243.27L332.809 242.99C332.762 243.083 332.692 243.177 332.599 243.27C332.505 243.363 332.459 243.457 332.459 243.55C332.459 243.643 332.505 243.783 332.599 243.97C332.739 244.11 332.855 244.227 332.949 244.32L333.439 243.27ZM344.639 252.16C344.499 251.973 344.359 251.81 344.219 251.67C344.359 251.857 344.499 252.02 344.639 252.16ZM354.579 268.54C354.625 268.447 354.649 268.353 354.649 268.26C354.649 268.353 354.625 268.447 354.579 268.54ZM354.719 268.12C354.672 268.167 354.649 268.213 354.649 268.26C354.649 268.213 354.672 268.167 354.719 268.12ZM362.602 276.52C362.602 276.287 362.672 276.007 362.812 275.68C362.952 275.353 363.022 275.003 363.022 274.63C363.162 273.51 363.256 272.717 363.302 272.25C363.349 271.737 363.372 271.293 363.372 270.92C363.372 268.96 363.302 266.86 363.162 264.62C363.069 262.333 362.952 260.14 362.812 258.04C362.812 257.387 362.789 256.617 362.742 255.73C362.742 254.843 362.696 254.143 362.602 253.63C362.742 251.997 362.859 250.387 362.952 248.8C363.046 247.213 363.092 245.603 363.092 243.97V242.22C363.092 241.613 363.069 241.007 363.022 240.4C363.162 240.54 363.302 240.61 363.442 240.61C363.629 240.61 363.816 240.54 364.002 240.4C364.236 240.26 364.446 240.19 364.632 240.19C364.959 240.19 365.216 240.54 365.402 241.24C365.636 241.94 365.752 243.48 365.752 245.86H366.382C366.616 243.247 366.966 241.17 367.432 239.63C367.946 238.09 368.459 237.32 368.972 237.32C369.206 237.32 369.579 237.833 370.092 238.86C370.606 239.84 370.862 241.403 370.862 243.55L371.632 242.29C372.146 241.683 372.706 241.053 373.312 240.4C373.966 239.747 374.689 239.163 375.482 238.65C376.276 238.137 377.162 237.717 378.142 237.39C379.122 237.017 380.242 236.83 381.502 236.83C383.929 236.83 386.029 237.39 387.802 238.51C389.622 239.583 391.139 241.007 392.352 242.78C393.566 244.507 394.546 246.49 395.292 248.73C396.086 250.923 396.692 253.163 397.112 255.45C397.532 257.69 397.812 259.86 397.952 261.96C398.092 264.06 398.162 265.857 398.162 267.35C398.162 268.703 398.069 269.52 397.882 269.8C397.742 270.033 397.462 270.173 397.042 270.22C396.949 266.627 396.716 262.963 396.342 259.23C395.969 255.497 395.082 251.88 393.682 248.38C394.942 252.067 395.736 255.707 396.062 259.3C396.436 262.847 396.622 266.417 396.622 270.01C396.342 269.87 396.086 269.8 395.852 269.8C395.666 269.8 395.502 269.87 395.362 270.01C395.362 270.383 395.386 270.78 395.432 271.2C395.479 271.573 395.502 271.947 395.502 272.32C395.549 272.693 395.572 273.043 395.572 273.37C395.292 274.443 395.012 275.213 394.732 275.68C394.452 276.147 394.196 276.38 393.962 276.38C393.682 276.38 393.449 276.263 393.262 276.03C393.076 275.75 392.889 275.423 392.702 275.05C392.562 274.677 392.399 274.28 392.212 273.86C392.072 273.393 391.862 272.95 391.582 272.53C391.676 271.737 391.746 271.107 391.792 270.64C391.839 270.127 391.862 269.707 391.862 269.38C391.862 268.12 391.839 266.603 391.792 264.83C391.746 263.057 391.606 261.213 391.372 259.3C391.186 257.34 390.859 255.403 390.392 253.49C389.972 251.53 389.366 249.803 388.572 248.31C387.826 246.77 386.869 245.533 385.702 244.6C384.536 243.62 383.136 243.13 381.502 243.13C380.382 243.13 379.379 243.503 378.492 244.25C377.652 244.997 376.906 245.953 376.252 247.12C375.646 248.287 375.109 249.57 374.642 250.97C374.176 252.323 373.802 253.63 373.522 254.89C373.942 253.583 374.362 252.253 374.782 250.9C375.249 249.547 375.786 248.31 376.392 247.19C377.046 246.07 377.792 245.16 378.632 244.46C379.472 243.713 380.452 243.34 381.572 243.34C383.019 243.34 384.256 243.737 385.282 244.53C386.356 245.323 387.242 246.35 387.942 247.61C388.689 248.87 389.272 250.317 389.692 251.95C390.159 253.537 390.509 255.17 390.742 256.85C390.976 258.483 391.116 260.093 391.162 261.68C391.256 263.22 391.302 264.55 391.302 265.67C391.302 266.557 391.279 267.443 391.232 268.33C391.232 269.217 391.209 270.127 391.162 271.06C390.742 269.287 390.416 267.443 390.182 265.53C389.996 263.57 389.786 261.657 389.552 259.79C389.319 257.877 389.016 256.057 388.642 254.33C388.316 252.557 387.826 250.923 387.172 249.43L387.662 248.73C387.196 247.657 386.659 246.84 386.052 246.28C385.492 245.673 384.932 245.23 384.372 244.95C383.812 244.67 383.299 244.507 382.832 244.46C382.366 244.413 382.062 244.39 381.922 244.39C380.756 244.39 379.706 244.81 378.772 245.65C377.886 246.49 377.092 247.633 376.392 249.08C375.739 250.48 375.156 252.113 374.642 253.98C374.129 255.847 373.686 257.807 373.312 259.86C372.939 261.913 372.612 263.99 372.332 266.09C372.052 268.143 371.819 270.08 371.632 271.9H372.262C372.496 270.313 372.729 268.563 372.962 266.65C373.242 264.737 373.522 262.8 373.802 260.84C374.129 258.833 374.502 256.897 374.922 255.03C375.342 253.163 375.832 251.483 376.392 249.99C376.999 248.497 377.699 247.283 378.492 246.35C379.239 245.463 380.149 244.95 381.222 244.81C380.196 245.043 379.332 245.697 378.632 246.77C377.886 247.89 377.232 249.267 376.672 250.9C376.112 252.533 375.599 254.33 375.132 256.29C374.712 258.203 374.316 260.047 373.942 261.82L372.542 272.04C372.356 272.693 372.216 273.277 372.122 273.79L371.842 275.26C371.749 275.727 371.656 276.24 371.562 276.8C371.469 277.313 371.352 277.92 371.212 278.62L371.002 279.46H370.582L363.512 277.08C363.279 277.033 363.092 276.963 362.952 276.87C362.859 276.777 362.742 276.66 362.602 276.52ZM374.782 240.61C373.849 241.403 373.102 242.267 372.542 243.2C372.029 244.087 371.539 244.997 371.072 245.93V246C371.726 244.647 372.636 243.27 373.802 241.87C374.922 240.563 376.416 239.583 378.282 238.93C377.676 239.117 377.092 239.303 376.532 239.49C375.879 239.723 375.296 240.097 374.782 240.61ZM383.182 238.3C382.949 238.253 382.622 238.23 382.202 238.23C383.696 238.603 385.096 239.023 386.402 239.49C387.709 239.91 388.946 240.773 390.112 242.08C389.319 241.007 388.269 240.167 386.962 239.56C385.702 238.953 384.442 238.533 383.182 238.3ZM385.072 246.28C384.699 246 384.256 245.79 383.742 245.65C383.276 245.463 382.692 245.23 381.992 244.95L381.922 244.81C382.716 244.857 383.416 245.043 384.022 245.37C384.629 245.65 385.212 246.163 385.772 246.91L385.072 246.28ZM390.252 242.22C390.906 243.013 391.512 243.923 392.072 244.95C392.632 245.977 393.122 246.887 393.542 247.68C393.076 246.607 392.632 245.627 392.212 244.74C391.792 243.853 391.139 243.013 390.252 242.22ZM430.654 282.26C428.88 282.867 427.527 283.193 426.594 283.24C425.66 283.333 424.844 283.403 424.144 283.45C421.53 283.45 419.174 282.96 417.074 281.98C414.974 281 413.177 279.67 411.684 277.99C410.19 276.31 409.024 274.35 408.184 272.11C407.39 269.823 406.994 267.397 406.994 264.83C406.994 263.337 407.134 261.797 407.414 260.21C407.694 258.577 408.114 256.99 408.674 255.45C409.234 253.863 409.957 252.393 410.844 251.04C411.684 249.687 412.687 248.473 413.854 247.4C412.64 248.38 411.614 249.547 410.774 250.9C409.887 252.253 409.14 253.723 408.534 255.31C407.927 256.85 407.484 258.46 407.204 260.14C406.924 261.773 406.784 263.36 406.784 264.9C406.784 266.86 407.087 268.96 407.694 271.2C408.347 273.393 409.374 275.447 410.774 277.36C412.174 279.227 413.97 280.79 416.164 282.05C418.404 283.31 421.11 283.94 424.284 283.94C425.777 283.94 427.34 283.73 428.974 283.31C427.2 284.477 425.217 285.06 423.024 285.06C421.25 285.06 419.57 284.78 417.984 284.22C416.444 283.707 414.997 282.96 413.644 281.98C412.337 281.047 411.147 279.927 410.074 278.62C409 277.313 408.09 275.913 407.344 274.42L407.974 273.86C407.18 272.273 406.597 270.687 406.224 269.1C405.897 267.513 405.734 265.903 405.734 264.27C405.734 261.89 406.06 259.603 406.714 257.41C407.414 255.217 408.324 253.14 409.444 251.18L411.124 248.87C411.404 248.357 411.8 247.843 412.314 247.33C412.874 246.817 413.48 246.327 414.134 245.86C414.787 245.347 415.464 244.903 416.164 244.53C416.91 244.11 417.61 243.737 418.264 243.41C419.944 242.57 421.624 241.823 423.304 241.17C424.984 240.47 426.944 239.957 429.184 239.63L428.904 239.42C424.61 239.84 420.97 240.89 417.984 242.57C414.997 244.203 412.57 246.21 410.704 248.59C408.837 250.97 407.484 253.583 406.644 256.43C405.804 259.23 405.384 261.983 405.384 264.69C405.384 266.137 405.5 267.607 405.734 269.1C406.014 270.547 406.41 271.993 406.924 273.44C405.757 270.64 405.174 267.677 405.174 264.55C405.174 261.47 405.687 258.413 406.714 255.38C407.74 252.347 409.35 249.547 411.544 246.98C414.344 244.413 417.4 242.453 420.714 241.1C424.027 239.7 427.224 239 430.304 239C431.284 239 432.287 239.163 433.314 239.49C434.34 239.817 435.274 240.33 436.114 241.03C436.954 241.683 437.63 242.547 438.144 243.62C438.704 244.693 438.984 246 438.984 247.54C438.984 248.8 438.68 250.34 438.074 252.16C437.467 253.98 436.557 255.753 435.344 257.48C434.177 259.16 432.707 260.607 430.934 261.82C429.16 262.987 427.107 263.57 424.774 263.57H422.464C420.737 263.197 419.15 262.777 417.704 262.31C416.304 261.797 414.974 261.4 413.714 261.12C413.527 261.867 413.41 262.59 413.364 263.29C413.364 263.943 413.364 264.597 413.364 265.25C413.364 266.603 413.504 267.933 413.784 269.24C414.11 270.5 414.6 271.667 415.254 272.74C415.907 273.813 416.724 274.723 417.704 275.47C418.73 276.17 419.967 276.613 421.414 276.8C422.3 276.987 423.07 277.103 423.724 277.15C424.377 277.15 424.914 277.173 425.334 277.22C425.8 277.22 426.127 277.29 426.314 277.43C426.547 277.523 426.664 277.733 426.664 278.06C426.197 278.2 425.707 278.293 425.194 278.34C424.727 278.387 424.237 278.41 423.724 278.41C422.09 278.41 420.62 278.153 419.314 277.64C418.007 277.08 416.887 276.45 415.954 275.75C417.027 276.823 418.31 277.593 419.804 278.06C421.297 278.48 422.767 278.69 424.214 278.69C425.007 278.69 425.824 278.62 426.664 278.48C426.57 278.76 426.524 278.923 426.524 278.97C426.524 279.25 426.64 279.437 426.874 279.53C427.06 279.483 427.387 279.367 427.854 279.18C428.32 278.947 428.787 278.737 429.254 278.55C429.767 278.317 430.257 278.13 430.724 277.99C431.19 277.803 431.517 277.71 431.704 277.71C431.937 277.71 432.147 277.757 432.334 277.85C432.52 277.897 432.614 278.153 432.614 278.62C432.614 279.087 432.45 279.647 432.124 280.3C431.797 280.953 431.307 281.607 430.654 282.26ZM420.994 254.54L422.534 254.82C423.047 254.913 423.514 254.96 423.934 254.96C424.4 254.96 424.937 254.82 425.544 254.54C426.197 254.213 426.827 253.77 427.434 253.21C428.087 252.65 428.647 251.95 429.114 251.11C429.627 250.27 430 249.313 430.234 248.24L430.374 247.82C429.72 247.82 428.74 247.983 427.434 248.31C426.127 248.637 424.774 249.08 423.374 249.64C421.974 250.153 420.667 250.783 419.454 251.53C418.24 252.23 417.4 253 416.934 253.84C417.634 253.98 418.31 254.12 418.964 254.26C419.664 254.353 420.34 254.447 420.994 254.54ZM417.774 259.72C417.867 259.627 417.914 259.487 417.914 259.3C417.96 259.113 417.984 258.973 417.984 258.88L414.694 257.69L414.344 258.67L417.774 259.72ZM415.814 275.61C415.487 275.237 415.16 274.863 414.834 274.49C414.554 274.163 414.32 273.837 414.134 273.51C414.554 274.303 415.114 275.003 415.814 275.61Z" fill="white"/>
</svg>
